<svg width="60" height="60" viewBox="0 0 60 60" fill="none" xmlns="http://www.w3.org/2000/svg">
<path fill-rule="evenodd" clip-rule="evenodd" d="M38.6975 56.875H10C8.1775 56.875 6.4275 56.15 5.1375 54.8625C3.85 53.5725 3.125 51.8225 3.125 50V10C3.125 8.1775 3.85 6.4275 5.1375 5.1375C6.4275 3.85 8.1775 3.125 10 3.125H31.465C32.625 3.125 33.7375 3.585 34.5575 4.4075L45.5925 15.4425C46.415 16.2625 46.875 17.375 46.875 18.535V28.9125C45.1575 28.66 43.41 28.7025 41.705 29.0375C40.2675 29.3175 39.0675 30.3 38.505 31.6525L38.08 32.6775C37.52 32.605 36.9775 32.535 36.9775 32.535C35.525 32.345 34.075 32.8925 33.1125 33.9975C31.81 35.4925 30.8075 37.225 30.165 39.1025C29.69 40.4875 29.94 42.0175 30.83 43.18L31.5075 44.0625C31.165 44.51 30.83 44.945 30.83 44.945C29.94 46.1075 29.69 47.6375 30.165 49.0225C30.8075 50.9 31.81 52.6325 33.1125 54.1275C34.075 55.2325 35.525 55.78 36.9775 55.59L38.08 55.4475C38.295 55.9675 38.505 56.4725 38.505 56.4725C38.5625 56.61 38.6275 56.745 38.6975 56.875ZM13.75 36.875H25C26.035 36.875 26.875 36.035 26.875 35C26.875 33.965 26.035 33.125 25 33.125H13.75C12.715 33.125 11.875 33.965 11.875 35C11.875 36.035 12.715 36.875 13.75 36.875ZM31.25 7.5V16.25C31.25 17.63 32.37 18.75 33.75 18.75H42.5L31.25 7.5ZM13.75 28.125H33.75C34.785 28.125 35.625 27.285 35.625 26.25C35.625 25.215 34.785 24.375 33.75 24.375H13.75C12.715 24.375 11.875 25.215 11.875 26.25C11.875 27.285 12.715 28.125 13.75 28.125ZM13.75 45.625H25C26.035 45.625 26.875 44.785 26.875 43.75C26.875 42.715 26.035 41.875 25 41.875H13.75C12.715 41.875 11.875 42.715 11.875 43.75C11.875 44.785 12.715 45.625 13.75 45.625Z" fill="black"/>
<path fill-rule="evenodd" clip-rule="evenodd" d="M48.4902 32.61C48.4902 32.61 49.3777 34.7475 49.3752 34.7475C49.7127 34.9175 50.0402 35.1075 50.3577 35.3125L52.6527 35.0125C53.2727 34.9325 53.8952 35.1675 54.3077 35.64C55.3977 36.89 56.2352 38.3425 56.7752 39.9125C56.9777 40.505 56.8702 41.1625 56.4877 41.66C56.4877 41.66 55.0827 43.4975 55.0827 43.495C55.1027 43.8725 55.1027 44.2525 55.0827 44.6275L56.4877 46.465C56.8702 46.9625 56.9777 47.62 56.7752 48.2125C56.2352 49.7825 55.3977 51.235 54.3077 52.485C53.8952 52.9575 53.2727 53.1925 52.6527 53.1125C52.6527 53.1125 50.3577 52.8125 50.3602 52.81C50.0427 53.0175 49.7127 53.2075 49.3777 53.3775L48.4902 55.515C48.2502 56.095 47.7352 56.515 47.1202 56.635C45.4902 56.955 43.8152 56.955 42.1852 56.635C41.5702 56.515 41.0552 56.095 40.8152 55.515C40.8152 55.515 39.9277 53.3775 39.9302 53.3775C39.5927 53.2075 39.2627 53.0175 38.9477 52.8125L36.6527 53.1125C36.0302 53.1925 35.4102 52.9575 34.9977 52.485C33.9052 51.235 33.0677 49.7825 32.5302 48.2125C32.3277 47.62 32.4352 46.9625 32.8152 46.465C32.8152 46.465 34.2227 44.6275 34.2227 44.63C34.2027 44.2525 34.2027 43.8725 34.2227 43.4975L32.8152 41.66C32.4352 41.1625 32.3277 40.505 32.5302 39.9125C33.0677 38.3425 33.9052 36.89 34.9977 35.64C35.4102 35.1675 36.0302 34.9325 36.6527 35.0125C36.6527 35.0125 38.9477 35.3125 38.9452 35.315C39.2627 35.1075 39.5902 34.9175 39.9277 34.7475L40.8152 32.61C41.0552 32.03 41.5702 31.61 42.1852 31.49C43.8152 31.17 45.4902 31.17 47.1202 31.49C47.7352 31.61 48.2502 32.03 48.4902 32.61ZM44.6527 40.3125C42.5827 40.3125 40.9027 41.9925 40.9027 44.0625C40.9027 46.1325 42.5827 47.8125 44.6527 47.8125C46.7227 47.8125 48.4027 46.1325 48.4027 44.0625C48.4027 41.9925 46.7227 40.3125 44.6527 40.3125Z" fill="black"/>
</svg>
