<svg width="60" height="60" viewBox="0 0 60 60" fill="none" xmlns="http://www.w3.org/2000/svg">
<g clip-path="url(#clip0_186_494)">
<path d="M3.31515 23.4969C3.52737 23.5832 3.75213 23.6263 3.9769 23.6263C4.20939 23.6263 4.44201 23.5801 4.66044 23.4879L9.91821 21.2687C10.8126 20.8913 11.2316 19.8602 10.8541 18.9658C10.4766 18.0714 9.44584 17.6523 8.55112 18.0298L7.26489 18.5726C11.2555 9.48888 20.2841 3.51581 30.3303 3.51581C41.8167 3.51581 51.8472 11.2826 54.7229 22.4033C54.9277 23.1956 55.6414 23.7216 56.4235 23.7214C56.5691 23.7214 56.7172 23.7032 56.8648 23.6651C57.8047 23.422 58.3697 22.4631 58.1266 21.5232C54.8498 8.85081 43.4194 0.000244141 30.3303 0.000244141C18.818 0.000244141 8.47894 6.88408 3.97104 17.3336L3.37761 15.9274C3.00027 15.0331 1.96951 14.614 1.07479 14.9913C0.180314 15.3688 -0.238742 16.3999 0.138831 17.2943L2.35762 22.5519C2.53868 22.9814 2.8832 23.3214 3.31515 23.4969Z" fill="black"/>
<path d="M59.8616 42.3493L57.6429 37.0917C57.4616 36.6621 57.1172 36.3222 56.6853 36.1467C56.2536 35.9711 55.7696 35.9744 55.34 36.1557L50.0821 38.3748C49.1877 38.7523 48.7687 39.7834 49.1463 40.6778C49.5238 41.5721 50.5547 41.9913 51.4492 41.6137L52.9213 40.9924C49.0307 50.3199 39.8756 56.484 29.67 56.484C18.1836 56.484 8.15306 48.7172 5.27744 37.5965C5.03451 36.6565 4.07512 36.0921 3.13564 36.3348C2.19569 36.5778 1.63074 37.5367 1.87378 38.4767C5.15065 51.149 16.5809 59.9997 29.67 59.9997C41.2472 59.9997 51.6379 53.0379 56.1047 42.489L56.6227 43.7163C56.9059 44.3876 57.5574 44.7911 58.2429 44.7911C58.4707 44.7911 58.7024 44.7465 58.9255 44.6524C59.8201 44.2747 60.2392 43.2437 59.8616 42.3493Z" fill="black"/>
<path d="M30 31.7577C30.9708 31.7577 31.7578 30.9707 31.7578 29.9999C31.7578 29.0291 30.9708 28.2421 30 28.2421C29.0292 28.2421 28.2422 29.0291 28.2422 29.9999C28.2422 30.9707 29.0292 31.7577 30 31.7577Z" fill="black"/>
<path d="M44.1208 34.3944C46.544 34.3944 48.5153 32.4231 48.5153 30C48.5153 27.5768 46.544 25.6055 44.1208 25.6055H43.792C43.5453 24.8302 43.2331 24.0773 42.8594 23.3551L43.0923 23.1223C44.8056 21.4088 44.8055 18.621 43.0922 16.9076C42.2648 16.0803 41.1613 15.6248 39.9847 15.6248C38.8082 15.6248 37.7047 16.0804 36.8773 16.9076L36.6446 17.1405C35.9224 16.7669 35.1693 16.4548 34.3943 16.208V15.8791C34.3943 13.4559 32.423 11.4846 29.9998 11.4846C27.5767 11.4846 25.6054 13.4559 25.6054 15.8791V16.208C24.8301 16.4548 24.0771 16.7669 23.355 17.1405L23.1223 16.9076C22.295 16.0803 21.1914 15.6248 20.0149 15.6248C18.8384 15.6248 17.7348 16.0804 16.9074 16.9076C15.1941 18.621 15.1941 21.409 16.9075 23.1224L17.1402 23.3552C16.7664 24.0776 16.4542 24.8305 16.2077 25.6056H15.8788C13.4557 25.6056 11.4844 27.5769 11.4844 30.0001C11.4844 32.4232 13.4557 34.3945 15.8788 34.3945H16.2077C16.4543 35.1697 16.7665 35.9229 17.1401 36.645L16.9074 36.8777C15.1941 38.5911 15.1941 41.379 16.9074 43.0924C17.7347 43.9197 18.8382 44.3752 20.0148 44.3752C21.1913 44.3752 22.2949 43.9196 23.1223 43.0924L23.355 42.8596C24.0776 43.2334 24.8305 43.5454 25.6054 43.7921V44.1211C25.6054 46.5442 27.5767 48.5155 29.9998 48.5155C32.423 48.5155 34.3943 46.5442 34.3943 44.1211V43.7921C35.1693 43.5454 35.9225 43.2334 36.6446 42.8597L36.8773 43.0925C37.7047 43.9198 38.8082 44.3753 39.9847 44.3753C41.1613 44.3753 42.2649 43.9197 43.0923 43.0924C44.8055 41.379 44.8055 38.5912 43.0922 36.8777L42.8594 36.645C43.2332 35.9225 43.5454 35.1696 43.792 34.3946H44.1208V34.3944ZM29.9999 35.2732C27.0922 35.2732 24.7266 32.9076 24.7266 29.9998C24.7266 27.0921 27.0922 24.7265 29.9999 24.7265C32.9077 24.7265 35.2733 27.0921 35.2733 29.9998C35.2733 32.9076 32.9077 35.2732 29.9999 35.2732Z" fill="black"/>
</g>
<defs>
<clipPath id="clip0_186_494">
<rect width="60" height="60" fill="white"/>
</clipPath>
</defs>
</svg>
