<svg width="60" height="60" viewBox="0 0 60 60" fill="none" xmlns="http://www.w3.org/2000/svg">
<path d="M35.4088 13.5281H19.2838C17.7519 13.5281 16.5088 12.285 16.5088 10.7531V6.525C16.5088 4.99313 17.7519 3.75 19.2838 3.75H35.4088C36.9407 3.75 38.1838 4.99313 38.1838 6.525V10.7531C38.1838 12.2869 36.9407 13.5281 35.4088 13.5281Z" fill="black"/>
<path d="M54.0561 33.7312C52.3311 32.0063 49.5186 32.0063 47.7936 33.7312L45.7461 35.79L52.0123 42.0544L54.0561 40.0106C55.7998 38.2687 55.7998 35.475 54.0561 33.7312Z" fill="black"/>
<path d="M43.7623 37.7812L32.8311 48.6937C32.6061 48.9375 32.4561 49.2375 32.3998 49.5562L31.5748 54.4125C31.3873 55.4812 32.3248 56.4 33.3936 56.2312L38.2498 55.4062C38.5686 55.35 38.8686 55.2 39.0936 54.975L50.0248 44.0437L43.7623 37.7812Z" fill="black"/>
<path d="M43.3308 8.6438H40.9965V10.7532C40.9965 13.8338 38.4896 16.3407 35.409 16.3407H19.284C16.2015 16.3407 13.6965 13.8338 13.6965 10.7532V8.6438H11.3246C7.63086 8.6438 4.63086 11.6438 4.63086 15.3375V49.5563C4.63086 53.25 7.63086 56.25 11.3246 56.25H29.0565C28.7715 55.5169 28.6646 54.7219 28.8033 53.9288L29.6265 49.0857C29.7727 48.2269 30.1665 47.4338 30.759 46.7869L42.6933 34.8694L45.7965 31.7494C46.9496 30.5944 48.429 29.91 50.0208 29.7132V15.3563C50.0246 11.625 47.0433 8.6438 43.3308 8.6438ZM24.4271 36.4557H16.2915C15.3596 36.4557 14.604 35.7 14.604 34.7682C14.604 33.8363 15.3596 33.0807 16.2915 33.0807H24.4271C25.359 33.0807 26.1146 33.8363 26.1146 34.7682C26.1146 35.7 25.359 36.4557 24.4271 36.4557ZM34.3871 26.8782H16.2934C15.3615 26.8782 14.6059 26.1225 14.6059 25.1907C14.6059 24.2588 15.3615 23.5032 16.2934 23.5032H34.3871C35.319 23.5032 36.0746 24.2588 36.0746 25.1907C36.0746 26.1225 35.319 26.8782 34.3871 26.8782Z" fill="black"/>
</svg>
