<svg width="40" height="39" viewBox="0 0 40 39" fill="none" xmlns="http://www.w3.org/2000/svg">
<path d="M1.66667 0.666666C0.746192 0.666666 0 1.41286 0 2.33333C0 3.25381 0.746192 4 1.66667 4H4.63216C4.87482 4 5.11133 4.07635 5.30818 4.21825C5.50504 4.36014 5.65225 4.56037 5.72897 4.79058L11.224 21.2786C11.468 22.0107 11.499 22.7989 11.3118 23.5475L10.8594 25.3607C10.1955 28.0163 12.2626 30.6667 15 30.6667H35C35.9205 30.6667 36.6667 29.9205 36.6667 29C36.6667 28.0795 35.9205 27.3333 35 27.3333H15C14.351 27.3333 13.9344 26.8008 14.0918 26.1712L14.433 24.8084C14.4908 24.5775 14.6242 24.3725 14.8118 24.226C14.9995 24.0796 15.2307 24 15.4688 24H33.3333C34.051 24.0004 34.6883 23.5414 34.9154 22.8607L39.3587 9.52734C39.7187 8.4477 38.9148 7.33281 37.7767 7.33333H10.9245C10.6818 7.33333 10.4453 7.25698 10.2484 7.11509C10.0516 6.97321 9.90436 6.77298 9.82762 6.54276L8.2487 1.80599C8.02159 1.12526 7.38428 0.666291 6.66667 0.666666H1.66667ZM13.3333 32.3333C11.4924 32.3333 10 33.8257 10 35.6667C10 37.5076 11.4924 39 13.3333 39C15.1743 39 16.6667 37.5076 16.6667 35.6667C16.6667 33.8257 15.1743 32.3333 13.3333 32.3333ZM33.3333 32.3333C31.4924 32.3333 30 33.8257 30 35.6667C30 37.5076 31.4924 39 33.3333 39C35.1743 39 36.6667 37.5076 36.6667 35.6667C36.6667 33.8257 35.1743 32.3333 33.3333 32.3333Z" fill="black"/>
</svg>
