<svg width="60" height="60" viewBox="0 0 60 60" fill="none" xmlns="http://www.w3.org/2000/svg">
<g clip-path="url(#clip0_149_973)">
<path d="M41.4879 3.70569H6.78516C3.04336 3.70569 0 6.74905 0 10.4908V40.901C0 42.3412 1.62879 43.1531 2.77852 42.3319L12.443 35.4365C13.2539 34.8588 14.2078 34.553 15.2039 34.553H36.4605C40.2023 34.553 43.2457 31.5096 43.2457 27.7678V5.4635C43.2457 4.49319 42.4582 3.70569 41.4879 3.70569ZM32.9496 24.9998H12.6398C11.6695 24.9998 10.882 24.2135 10.882 23.242C10.882 22.2717 11.6695 21.4842 12.6398 21.4842H32.9496C33.9199 21.4842 34.7074 22.2717 34.7074 23.242C34.7074 24.2135 33.9199 24.9998 32.9496 24.9998ZM32.9496 16.7967H12.6398C11.6695 16.7967 10.882 16.0104 10.882 15.0389C10.882 14.0686 11.6695 13.2811 12.6398 13.2811H32.9496C33.9199 13.2811 34.7074 14.0686 34.7074 15.0389C34.7074 16.0104 33.9199 16.7967 32.9496 16.7967Z" fill="black"/>
<path d="M60 24.1256V54.5346C60 55.9651 58.3794 56.7926 57.2215 55.9655L47.557 49.0713C46.7461 48.4936 45.7922 48.1877 44.7961 48.1877H23.5394C19.7976 48.1877 16.7543 45.1432 16.7543 41.4014V38.0686H36.4605C42.1406 38.0686 46.7613 33.4479 46.7613 27.7678V17.3393H53.2148C56.9566 17.3393 60 20.3838 60 24.1256Z" fill="black"/>
</g>
<defs>
<clipPath id="clip0_149_973">
<rect width="60" height="60" fill="white"/>
</clipPath>
</defs>
</svg>
