<svg width="38" height="38" viewBox="0 0 38 38" fill="none" xmlns="http://www.w3.org/2000/svg">
<path d="M29 0.666656H9C6.79068 0.669303 4.6726 1.54813 3.11037 3.11036C1.54814 4.67259 0.669314 6.79067 0.666668 8.99999V22.3333C0.669092 24.2537 1.33348 26.1145 2.54786 27.6021C3.76224 29.0897 5.45235 30.1132 7.33333 30.5V35.6667C7.33329 35.9684 7.41516 36.2645 7.57021 36.5233C7.72526 36.7822 7.94768 36.9941 8.21373 37.1365C8.47977 37.2788 8.77948 37.3463 9.08086 37.3316C9.38224 37.317 9.674 37.2208 9.925 37.0533L19.5 30.6667H29C31.2093 30.664 33.3274 29.7852 34.8896 28.223C36.4519 26.6607 37.3307 24.5427 37.3333 22.3333V8.99999C37.3307 6.79067 36.4519 4.67259 34.8896 3.11036C33.3274 1.54813 31.2093 0.669303 29 0.666656ZM25.6667 20.6667H12.3333C11.8913 20.6667 11.4674 20.4911 11.1548 20.1785C10.8423 19.8659 10.6667 19.442 10.6667 19C10.6667 18.558 10.8423 18.134 11.1548 17.8215C11.4674 17.5089 11.8913 17.3333 12.3333 17.3333H25.6667C26.1087 17.3333 26.5326 17.5089 26.8452 17.8215C27.1577 18.134 27.3333 18.558 27.3333 19C27.3333 19.442 27.1577 19.8659 26.8452 20.1785C26.5326 20.4911 26.1087 20.6667 25.6667 20.6667ZM29 14H9C8.55797 14 8.13405 13.8244 7.82149 13.5118C7.50893 13.1993 7.33333 12.7754 7.33333 12.3333C7.33333 11.8913 7.50893 11.4674 7.82149 11.1548C8.13405 10.8423 8.55797 10.6667 9 10.6667H29C29.442 10.6667 29.8659 10.8423 30.1785 11.1548C30.4911 11.4674 30.6667 11.8913 30.6667 12.3333C30.6667 12.7754 30.4911 13.1993 30.1785 13.5118C29.8659 13.8244 29.442 14 29 14Z" fill="black"/>
</svg>
