<svg width="60" height="60" viewBox="0 0 60 60" fill="none" xmlns="http://www.w3.org/2000/svg">
<path d="M46.8819 51.8288H37.1843H34.5729H34.009V38.821H38.2632C39.3421 38.821 39.9796 37.595 39.3421 36.7123L31.0666 25.2615C30.5394 24.5259 29.4483 24.5259 28.9211 25.2615L20.6457 36.7123C20.0082 37.595 20.6334 38.821 21.7246 38.821H25.9787V51.8288H25.4148H22.8034H11.5611C5.12464 51.4732 0 45.4536 0 38.9313C0 34.4319 2.43972 30.5088 6.0564 28.3878C5.72538 27.4928 5.55374 26.5366 5.55374 25.5312C5.55374 20.9338 9.26849 17.219 13.866 17.219C14.859 17.219 15.8153 17.3907 16.7103 17.7217C19.3707 12.0821 25.1083 8.1712 31.7777 8.1712C40.4087 8.18346 47.5194 14.7916 48.3286 23.2141C54.9612 24.3543 60 30.4965 60 37.4479C60 44.8774 54.2133 51.3138 46.8819 51.8288Z" fill="black"/>
</svg>
