<svg width="126" height="47" viewBox="0 0 126 47" fill="none" xmlns="http://www.w3.org/2000/svg">
<path d="M57.1431 32.7326C55.5975 32.7326 54.2703 32.4533 53.162 31.8948C52.0536 31.3362 51.148 30.6101 50.4454 29.7164C49.7586 28.8227 49.2511 27.8492 48.9233 26.7959C48.5955 25.7426 48.4314 24.7292 48.4314 23.7557V23.2291C48.4314 22.1439 48.5955 21.0746 48.9233 20.0213C49.2667 18.968 49.7897 18.0105 50.4921 17.1487C51.1948 16.2869 52.0847 15.6007 53.162 15.09C54.2548 14.5634 55.5428 14.3 57.0257 14.3C58.5713 14.3 59.914 14.5873 61.0539 15.1618C62.209 15.7204 63.1302 16.5183 63.8169 17.5557C64.504 18.5771 64.9177 19.774 65.0582 21.1464H61.7095C61.5846 20.3485 61.3035 19.6782 60.8663 19.1356C60.445 18.5771 59.9064 18.1621 59.2505 17.8908C58.5949 17.6036 57.8534 17.4599 57.0257 17.4599C56.1828 17.4599 55.4334 17.6115 54.7778 17.9148C54.1222 18.202 53.5756 18.6169 53.1384 19.1596C52.7012 19.7021 52.3658 20.3405 52.1315 21.0746C51.913 21.8087 51.8037 22.6226 51.8037 23.5163C51.8037 24.3781 51.913 25.1761 52.1315 25.9102C52.3658 26.6443 52.7092 27.2906 53.162 27.8492C53.6147 28.3918 54.1689 28.8147 54.8245 29.1179C55.4957 29.4211 56.2687 29.5728 57.1431 29.5728C58.4232 29.5728 59.5004 29.2536 60.3748 28.6152C61.2644 27.9609 61.803 27.0512 61.9906 25.8862H65.3393C65.1832 27.131 64.7695 28.2721 64.098 29.3094C63.4268 30.3468 62.5057 31.1766 61.3347 31.799C60.164 32.4214 58.7665 32.7326 57.1431 32.7326Z" fill="black"/>
<path d="M66.8807 32.2777V14.8027H70.136V32.2777H66.8807ZM65.2884 17.2923V14.8027H70.136V17.2923H65.2884Z" fill="black"/>
<path d="M78.7933 32.7325C77.6693 32.7325 76.6779 32.549 75.8191 32.182C74.9607 31.8149 74.2344 31.3202 73.6415 30.6978C73.0482 30.0595 72.5954 29.3413 72.2832 28.5433C71.9865 27.7454 71.838 26.9155 71.838 26.0537V25.551C71.838 24.6574 71.9941 23.8115 72.3064 23.0136C72.6342 22.1997 73.0949 21.4815 73.6882 20.8591C74.2971 20.2208 75.0309 19.726 75.8894 19.3749C76.7482 19.0079 77.7161 18.8243 78.7933 18.8243C79.8705 18.8243 80.8384 19.0079 81.6972 19.3749C82.5556 19.726 83.2819 20.2208 83.8748 20.8591C84.4837 21.4815 84.9444 22.1997 85.2567 23.0136C85.5689 23.8115 85.725 24.6574 85.725 25.551V26.0537C85.725 26.9155 85.5689 27.7454 85.2567 28.5433C84.96 29.3413 84.5152 30.0595 83.9219 30.6978C83.3286 31.3202 82.6027 31.8149 81.7439 32.182C80.8854 32.549 79.9017 32.7325 78.7933 32.7325ZM78.7933 29.8839C79.5894 29.8839 80.2606 29.7083 80.8072 29.3572C81.3538 28.9902 81.7674 28.5034 82.0485 27.897C82.3292 27.2746 82.4698 26.5724 82.4698 25.7904C82.4698 24.9925 82.3216 24.2903 82.025 23.6839C81.7439 23.0614 81.3223 22.5747 80.7605 22.2236C80.2139 21.8566 79.5583 21.673 78.7933 21.673C78.0283 21.673 77.3647 21.8566 76.8029 22.2236C76.2563 22.5747 75.8347 23.0614 75.538 23.6839C75.2414 24.2903 75.0932 24.9925 75.0932 25.7904C75.0932 26.5724 75.2338 27.2746 75.5149 27.897C75.8115 28.5034 76.2328 28.9902 76.7794 29.3572C77.3256 29.7083 77.9971 29.8839 78.7933 29.8839Z" fill="black"/>
<path d="M91.7366 32.6847C90.269 32.6847 89.1294 32.19 88.3177 31.2005C87.5215 30.211 87.1231 28.7428 87.1231 26.7958V19.2552H90.3783V27.0831C90.3783 27.881 90.5971 28.5194 91.034 28.9982C91.4711 29.461 92.0645 29.6924 92.8139 29.6924C93.5633 29.6924 94.1722 29.445 94.6405 28.9503C95.1245 28.4556 95.3664 27.7853 95.3664 26.9395V19.2552H98.6217V32.2777H96.0456V26.7479H96.3031C96.3031 28.0566 96.1394 29.1498 95.8112 30.0275C95.4834 30.9052 94.9919 31.5675 94.3359 32.0144C93.6803 32.4612 92.8606 32.6847 91.8772 32.6847H91.7366Z" fill="black"/>
<path d="M106.459 32.7087C105.569 32.7087 104.749 32.5411 104 32.2059C103.251 31.8708 102.603 31.4 102.056 30.7936C101.51 30.1871 101.088 29.4849 100.792 28.687C100.495 27.8731 100.347 26.9954 100.347 26.0538V25.5511C100.347 24.6255 100.487 23.7557 100.768 22.9418C101.065 22.1279 101.471 21.4177 101.986 20.8113C102.517 20.2048 103.149 19.734 103.883 19.3989C104.632 19.0478 105.46 18.8722 106.365 18.8722C107.364 18.8722 108.238 19.0957 108.988 19.5425C109.753 19.9734 110.362 20.6277 110.815 21.5055C111.267 22.3832 111.517 23.4844 111.564 24.809L110.604 23.6599V14.8027H113.859V32.2777H111.283V26.748H111.845C111.798 28.0726 111.533 29.1817 111.049 30.0754C110.565 30.9532 109.925 31.6154 109.128 32.0623C108.348 32.4932 107.458 32.7087 106.459 32.7087ZM107.185 29.9079C107.825 29.9079 108.411 29.7642 108.941 29.477C109.472 29.1737 109.893 28.7429 110.206 28.1843C110.533 27.6098 110.698 26.9395 110.698 26.1735V25.2159C110.698 24.4499 110.533 23.8116 110.206 23.3008C109.878 22.7742 109.449 22.3753 108.918 22.104C108.387 21.8167 107.809 21.673 107.185 21.673C106.482 21.673 105.858 21.8486 105.311 22.1997C104.78 22.5348 104.359 23.0136 104.047 23.636C103.75 24.2584 103.602 24.9845 103.602 25.8144C103.602 26.6443 103.758 27.3704 104.07 27.9928C104.382 28.5992 104.804 29.07 105.335 29.4051C105.881 29.7403 106.498 29.9079 107.185 29.9079Z" fill="black"/>
<path d="M36.1675 34.1154C35.0429 34.1154 34.35 33.5846 33.2179 32.9595C32.0858 32.3344 28.8116 29.8176 28.8116 26.6846C28.8116 24.5593 28.2756 22.8404 27.3629 21.4704C26.4569 20.111 25.2297 19.1692 23.9529 18.5044C23.3377 18.1841 22.6974 17.9221 22.0599 17.7056C21.6882 17.5795 21.4725 17.1716 21.6338 16.8069C22.6558 14.4939 24.932 12.8846 27.5762 12.8846C31.1755 12.8846 34.0934 15.8673 34.0934 19.5467C34.0934 20.3339 33.9599 21.0893 33.7147 21.7902C34.7535 21.0746 36.0052 20.657 37.3521 20.657C40.9514 20.657 43.8691 23.6396 43.8691 27.3191C43.8691 31.7485 40.0614 34.1154 36.1675 34.1154Z" fill="black"/>
<path d="M12.3692 26.7639C12.3692 30.2755 14.6341 33.2015 17.6346 33.848C18.0977 34.021 18.5977 34.1153 19.1192 34.1153H29.2451C29.5847 34.1153 29.7325 33.6511 29.4733 33.4268C27.7036 31.8962 26.3885 29.7391 26.3885 26.6846C26.3885 25.0062 25.9727 23.7838 25.3602 22.8648C24.7407 21.9353 23.8694 21.2405 22.8531 20.7112C21.8273 20.1771 20.7136 19.8369 19.6501 19.5957C19.3997 19.5634 19.1448 19.5466 18.8865 19.5466C15.287 19.5466 12.3692 22.7779 12.3692 26.7639Z" fill="black"/>
</svg>
