<svg width="60" height="60" viewBox="0 0 60 60" fill="none" xmlns="http://www.w3.org/2000/svg">
<g clip-path="url(#clip0_149_951)">
<path d="M14.7743 39.4272L28.2422 47.2834V30.4494L14.7743 22.6071V39.4272Z" fill="black"/>
<path d="M16.5193 19.5551L30 27.4048L43.4807 19.5551L30 11.6913L16.5193 19.5551Z" fill="black"/>
<path d="M45.2258 39.4272V22.6071L31.7578 30.4494V47.2834L45.2258 39.4272Z" fill="black"/>
<path d="M51.2133 8.78672C45.5469 3.12059 38.0133 0 30 0C21.2216 0 13.0393 3.77918 7.38118 10.2852L7.09255 8.23148L3.61115 8.72086L4.73322 16.7046L12.7194 15.5823L12.2302 12.1008L10.2182 12.3836C15.2064 6.76992 22.3467 3.51563 30 3.51563C44.6036 3.51563 56.4844 15.3964 56.4844 30C56.4844 32.0871 56.2411 34.1644 55.7613 36.1741L59.1809 36.9906C59.7244 34.7136 60 32.3618 60 30.0001C60 21.9867 56.8795 14.4531 51.2133 8.78672Z" fill="black"/>
<path d="M47.635 43.7377L48.0634 47.2272L50.3647 46.9445C45.3682 52.9785 38.0006 56.4844 30 56.4844C15.3964 56.4844 3.51562 44.6036 3.51562 30C3.51562 27.6963 3.81141 25.4105 4.39465 23.2059L0.996094 22.3068C0.335156 24.8045 0 27.3929 0 30C0 38.0133 3.12047 45.5469 8.78672 51.2133C14.4531 56.8794 21.9867 60 30 60C35.2427 60 40.4034 58.6272 44.9243 56.0298C47.9921 54.2673 50.7286 51.9677 52.9962 49.2652L53.273 51.5194L56.7623 51.0909L55.7373 42.743L47.635 43.7377Z" fill="black"/>
</g>
<defs>
<clipPath id="clip0_149_951">
<rect width="60" height="60" fill="white"/>
</clipPath>
</defs>
</svg>
