<svg width="60" height="60" viewBox="0 0 60 60" fill="none" xmlns="http://www.w3.org/2000/svg">
<path d="M7.22216 14.3479C7.66186 16.088 8.56379 17.6788 9.83132 18.9476L10.9918 20.0943L20.0943 10.9829L18.934 9.83606C17.6654 8.56731 16.0772 7.66454 14.3387 7.22438L5.60755 5.01479C5.44083 4.97282 5.26436 5.02162 5.14249 5.14264C5.0216 5.26464 4.97285 5.44129 5.01478 5.60818L7.22216 14.3479Z" fill="black"/>
<path d="M17.8139 26.6981L26.6981 17.7768L22.3753 13.4905L13.4906 22.4124L17.8139 26.6981Z" fill="black"/>
<path d="M33.4544 42.5735L42.5697 33.4582L48.0336 38.922L38.9183 48.0373L33.4544 42.5735Z" fill="black"/>
<path d="M50.0629 40.8491L40.8491 50.0608L43.8813 53.0927C45.1121 54.3221 46.7484 55 48.4884 55C50.2284 55 51.8647 54.3221 53.0954 53.0927C55.6349 50.5529 55.6349 46.4205 53.0954 43.8808L50.0629 40.8491Z" fill="black"/>
<path d="M27.5541 31.8445C28.1263 31.2725 29.0539 31.2725 29.6258 31.8445L34.6717 36.8901L36.8923 34.6697L34.0121 31.7897C33.4399 31.2178 33.4399 30.2903 34.0121 29.7182C34.5841 29.1462 35.5117 29.146 36.0838 29.7182L38.964 32.5981L41.2237 30.3386L36.1778 25.293C35.6056 24.721 35.6056 23.7935 36.1778 23.2214C36.7499 22.6494 37.6774 22.6492 38.2495 23.2214L43.2954 28.2671L45.5552 26.0075L42.6749 23.1275C42.1027 22.5556 42.1027 21.6281 42.6749 21.056C43.247 20.484 44.1745 20.4838 44.7466 21.056L47.6268 23.9359L49.8865 21.6764L44.8406 16.6307C44.2684 16.0587 44.2684 15.1312 44.8406 14.5591C45.4128 13.987 46.3403 13.987 46.9123 14.5591L51.9582 19.6048L54.0305 17.5293C54.6558 16.9041 55 16.0728 55 15.1886C55 14.3044 54.6556 13.4732 54.0305 12.8479L47.1515 5.96963C46.5262 5.34434 45.6949 5 44.8107 5C43.9265 5 43.0952 5.34424 42.4699 5.96953L5.96953 42.4707C5.34434 43.0958 5 43.9271 5 44.8112C5 45.6954 5.34434 46.5266 5.96953 47.1519L12.8486 54.0304C13.4738 54.6556 14.3051 55 15.1894 55C16.0737 55 16.9049 54.6557 17.5301 54.0305L19.6057 51.9552L16.7255 49.0752C16.1534 48.5032 16.1534 47.5757 16.7255 47.0036C17.2976 46.4316 18.2251 46.4316 18.7972 47.0036L21.6774 49.8836L23.937 47.624L18.8911 42.5785C18.3191 42.0065 18.3191 41.079 18.8911 40.5069C19.4632 39.935 20.3908 39.935 20.9628 40.5069L26.0087 45.5524L28.2685 43.2929L25.3882 40.4129C24.8162 39.8409 24.8162 38.9135 25.3882 38.3413C25.9604 37.7693 26.8879 37.7691 27.46 38.3413L30.3403 41.2213L32.6 38.9617L27.554 33.9161C26.982 33.3441 26.982 32.4166 27.5541 31.8445Z" fill="black"/>
</svg>
