<svg width="137" height="63" viewBox="0 0 137 63" fill="none" xmlns="http://www.w3.org/2000/svg">
<path fill-rule="evenodd" clip-rule="evenodd" d="M31.7284 47.8558C40.7877 47.8558 48.132 40.533 48.132 31.5001C48.132 22.467 40.7877 15.1443 31.7284 15.1443C22.6689 15.1443 15.3248 22.467 15.3248 31.5001C15.3248 40.533 22.6689 47.8558 31.7284 47.8558ZM32.8393 22.905C34.1938 22.298 35.7497 22.3291 37.0787 22.9897C39.045 23.967 39.004 26.7782 37.01 27.6982L32.5866 29.7391C32.1643 29.934 31.6755 29.9251 31.2606 29.7149L27.1022 27.6078C26.6699 27.3888 26.1414 27.5606 25.9217 27.9917C25.7021 28.4227 25.8744 28.9497 26.3067 29.1687L31.1221 31.6088C31.602 31.8517 32.1667 31.862 32.6552 31.6367L37.7476 29.2872C41.0778 27.7506 41.1462 23.0552 37.8621 21.4228C36.062 20.5279 33.9541 20.4858 32.1194 21.3081L23.0713 25.3634C22.4408 25.646 22.0353 26.2711 22.0353 26.9603V29.8407C22.0353 30.5048 22.4119 31.1115 23.0078 31.4077L31.1163 35.4385C31.6096 35.6835 32.1898 35.6835 32.6832 35.4385L39.2072 32.1955C39.5754 32.0122 40.0082 32.2794 40.0082 32.6898C40.0082 32.8991 39.8895 33.0905 39.7014 33.1841L32.5774 36.7254C32.1506 36.9374 31.6488 36.9374 31.222 36.7254L24.5747 33.421C23.4073 32.8406 22.0353 33.6872 22.0353 34.9878V36.5413C22.0353 37.2052 22.4119 37.8122 23.0078 38.1084L31.1193 42.1404C31.6093 42.3839 32.1853 42.3857 32.6768 42.1452L38.8861 39.1055C39.3214 38.8923 39.5009 38.3677 39.2874 37.9336C39.0735 37.4996 38.5477 37.3206 38.1124 37.5338L32.5774 40.2431C32.1522 40.4515 31.654 40.45 31.2302 40.2392L24.1774 36.7333C23.9408 36.6158 23.7913 36.3747 23.7913 36.1112C23.7913 35.5948 24.336 35.2586 24.7995 35.489L31.1163 38.6291C31.6096 38.8744 32.1898 38.8744 32.6832 38.6291L40.7917 34.5986C41.3877 34.3023 41.7643 33.6954 41.7643 33.0314V31.7972C41.7643 30.4966 40.3922 29.6499 39.2248 30.2302L32.5774 33.5345C32.1506 33.7466 31.6488 33.7466 31.222 33.5345L24.6325 30.2589C24.117 30.0027 23.7913 29.4778 23.7913 28.9035V27.94C23.7913 27.3438 24.1421 26.8031 24.6874 26.5587L32.8393 22.905Z" fill="black"/>
<path d="M58.3839 26.8098V30.2969H63.0799V32.5086H58.3839V36.1947H63.6795V38.4663H55.5862V24.5383H63.6795V26.8098H58.3839Z" fill="black"/>
<path d="M68.2202 29.0415C68.5799 28.5102 69.0729 28.0785 69.699 27.7464C70.3387 27.4143 71.0647 27.2482 71.8773 27.2482C72.8232 27.2482 73.6759 27.4807 74.4353 27.9456C75.2078 28.4105 75.8141 29.0747 76.2537 29.9382C76.7066 30.7882 76.9332 31.778 76.9332 32.9072C76.9332 34.0361 76.7066 35.0392 76.2537 35.9158C75.8141 36.7793 75.2078 37.4502 74.4353 37.9284C73.6759 38.4064 72.8232 38.6457 71.8773 38.6457C71.0513 38.6457 70.3253 38.4863 69.699 38.1674C69.0862 37.8354 68.5932 37.4102 68.2202 36.8923V38.4663H65.4225V23.7214H68.2202V29.0415ZM74.0754 32.9072C74.0754 32.243 73.9356 31.6717 73.6559 31.1935C73.3894 30.7019 73.0298 30.33 72.5766 30.0777C72.137 29.8253 71.6574 29.6991 71.1379 29.6991C70.6315 29.6991 70.1519 29.8319 69.699 30.0976C69.2594 30.3499 68.8997 30.7219 68.62 31.2135C68.3536 31.7047 68.2202 32.2827 68.2202 32.9469C68.2202 33.6111 68.3536 34.189 68.62 34.6803C68.8997 35.1719 69.2594 35.5505 69.699 35.8161C70.1519 36.0687 70.6315 36.1947 71.1379 36.1947C71.6574 36.1947 72.137 36.062 72.5766 35.7961C73.0298 35.5305 73.3894 35.1519 73.6559 34.6606C73.9356 34.169 74.0754 33.5845 74.0754 32.9072Z" fill="black"/>
<path d="M83.0828 38.6456C82.0171 38.6456 81.0578 38.413 80.2052 37.9481C79.3525 37.4698 78.6796 36.7992 78.1869 35.9357C77.7073 35.0722 77.4676 34.076 77.4676 32.9468C77.4676 31.8177 77.7139 30.8215 78.207 29.958C78.713 29.0946 79.3993 28.4304 80.265 27.9655C81.1311 27.4873 82.097 27.2482 83.1627 27.2482C84.2286 27.2482 85.1946 27.4873 86.0603 27.9655C86.9264 28.4304 87.6059 29.0946 88.0986 29.958C88.605 30.8215 88.858 31.8177 88.858 32.9468C88.858 34.076 88.5983 35.0722 88.0789 35.9357C87.5725 36.7992 86.8799 37.4698 86.0005 37.9481C85.1344 38.413 84.1621 38.6456 83.0828 38.6456ZM83.0828 36.2146C83.5892 36.2146 84.0621 36.095 84.5017 35.856C84.9546 35.6037 85.3143 35.2318 85.5807 34.7402C85.8474 34.2486 85.9804 33.651 85.9804 32.9468C85.9804 31.8973 85.7007 31.0938 85.1411 30.5359C84.5949 29.9647 83.9221 29.6791 83.1229 29.6791C82.3233 29.6791 81.6508 29.9647 81.1043 30.5359C80.5715 31.0938 80.3051 31.8973 80.3051 32.9468C80.3051 33.9963 80.5648 34.8065 81.0846 35.3778C81.6174 35.9357 82.2836 36.2146 83.0828 36.2146Z" fill="black"/>
<path d="M95.027 38.6456C93.9611 38.6456 93.0021 38.413 92.1494 37.9481C91.2967 37.4698 90.6238 36.7992 90.1311 35.9357C89.6515 35.0722 89.4115 34.076 89.4115 32.9468C89.4115 31.8177 89.6582 30.8215 90.1509 29.958C90.6573 29.0946 91.3435 28.4304 92.2092 27.9655C93.0753 27.4873 94.0412 27.2482 95.1069 27.2482C96.1728 27.2482 97.1385 27.4873 98.0045 27.9655C98.8706 28.4304 99.5501 29.0946 100.043 29.958C100.549 30.8215 100.802 31.8177 100.802 32.9468C100.802 34.076 100.543 35.0722 100.023 35.9357C99.5167 36.7992 98.8238 37.4698 97.9447 37.9481C97.0786 38.413 96.106 38.6456 95.027 38.6456ZM95.027 36.2146C95.5334 36.2146 96.0063 36.095 96.4459 35.856C96.8988 35.6037 97.2585 35.2318 97.5249 34.7402C97.7913 34.2486 97.9246 33.651 97.9246 32.9468C97.9246 31.8973 97.6449 31.0938 97.0853 30.5359C96.5391 29.9647 95.8663 29.6791 95.0671 29.6791C94.2676 29.6791 93.5947 29.9647 93.0485 30.5359C92.5157 31.0938 92.2493 31.8973 92.2493 32.9468C92.2493 33.9963 92.509 34.8065 93.0285 35.3778C93.5616 35.9357 94.2278 36.2146 95.027 36.2146Z" fill="black"/>
<path d="M108.61 38.4663L104.853 33.7638V38.4663H102.055V23.7214H104.853V32.11L108.57 27.4276H112.207L107.331 32.9669L112.247 38.4663H108.61Z" fill="black"/>
<path d="M117.162 38.6456C116.256 38.6456 115.444 38.4863 114.725 38.1673C114.005 37.8354 113.432 37.3901 113.006 36.8322C112.593 36.2743 112.366 35.6567 112.326 34.9792H115.144C115.198 35.4044 115.404 35.7564 115.763 36.0353C116.137 36.3143 116.596 36.4536 117.143 36.4536C117.675 36.4536 118.089 36.3476 118.381 36.135C118.688 35.9224 118.841 35.6501 118.841 35.3181C118.841 34.9592 118.654 34.6936 118.281 34.5209C117.922 34.3349 117.342 34.1356 116.543 33.9233C115.717 33.724 115.037 33.5181 114.505 33.3054C113.985 33.0931 113.532 32.7675 113.146 32.3292C112.773 31.8907 112.586 31.2997 112.586 30.5559C112.586 29.9448 112.76 29.3868 113.106 28.882C113.465 28.3773 113.972 27.9788 114.625 27.6865C115.291 27.3943 116.07 27.2482 116.963 27.2482C118.281 27.2482 119.334 27.5803 120.12 28.2444C120.906 28.8953 121.339 29.7787 121.419 30.8945H118.741C118.701 30.4562 118.515 30.1108 118.182 29.8584C117.862 29.5927 117.429 29.4599 116.883 29.4599C116.376 29.4599 115.983 29.5529 115.704 29.7388C115.437 29.9248 115.304 30.1838 115.304 30.5159C115.304 30.8878 115.49 31.1734 115.863 31.3727C116.236 31.5587 116.816 31.7513 117.602 31.9506C118.401 32.1499 119.061 32.3556 119.581 32.5682C120.1 32.7808 120.546 33.1128 120.919 33.5644C121.306 34.003 121.506 34.5872 121.519 35.3181C121.519 35.9557 121.339 36.5269 120.979 37.0315C120.633 37.5364 120.127 37.9347 119.461 38.227C118.808 38.506 118.042 38.6456 117.162 38.6456Z" fill="black"/>
</svg>
