<svg width="34" height="34" viewBox="0 0 34 34" fill="none" xmlns="http://www.w3.org/2000/svg">
<path d="M0.416016 18.6665H9.5459C9.84422 24.1147 11.5961 29.1755 14.4205 33.4682C6.97983 32.3118 1.16732 26.2337 0.416016 18.6665ZM0.416016 15.3332C1.16732 7.76613 6.97983 1.68793 14.4205 0.531693C11.5961 4.82426 9.84422 9.88518 9.5459 15.3332H0.416016ZM33.5848 15.3332H24.4548C24.1565 9.88518 22.4046 4.82426 19.5803 0.531693C27.021 1.68793 32.8335 7.76613 33.5848 15.3332ZM33.5848 18.6665C32.8335 26.2337 27.021 32.3118 19.5803 33.4682C22.4046 29.1755 24.1565 24.1147 24.4548 18.6665H33.5848ZM12.8849 18.6665H21.1158C20.8298 23.3047 19.3581 27.622 17.0003 31.3192C14.6425 27.622 13.171 23.3047 12.8849 18.6665ZM12.8849 15.3332C13.171 10.6951 14.6425 6.37786 17.0003 2.68068C19.3581 6.37786 20.8298 10.6951 21.1158 15.3332H12.8849Z" fill="black"/>
</svg>
