<svg width="40" height="40" viewBox="0 0 40 40" fill="none" xmlns="http://www.w3.org/2000/svg">
<path d="M30 13.3333H33.3333C34.2538 13.3333 35 14.0795 35 15V35C35 35.9205 34.2538 36.6667 33.3333 36.6667H6.66667C5.7462 36.6667 5 35.9205 5 35V15C5 14.0795 5.7462 13.3333 6.66667 13.3333H10V11.6667C10 6.14381 14.4771 1.66666 20 1.66666C25.5228 1.66666 30 6.14381 30 11.6667V13.3333ZM18.3333 26.2207V30H21.6667V26.2207C22.663 25.6443 23.3333 24.5672 23.3333 23.3333C23.3333 21.4923 21.841 20 20 20C18.159 20 16.6667 21.4923 16.6667 23.3333C16.6667 24.5672 17.337 25.6443 18.3333 26.2207ZM26.6667 13.3333V11.6667C26.6667 7.98476 23.6818 4.99999 20 4.99999C16.3181 4.99999 13.3333 7.98476 13.3333 11.6667V13.3333H26.6667Z" fill="black"/>
</svg>
