<svg width="40" height="40" viewBox="0 0 40 40" fill="none" xmlns="http://www.w3.org/2000/svg">
<path d="M26.6667 3.33334L35 11.6667V35.0137C35 35.9267 34.2585 36.6667 33.3443 36.6667H6.65567C5.74127 36.6667 5 35.9078 5 35.0137V4.98634C5 4.07343 5.74158 3.33334 6.65567 3.33334H26.6667ZM22.5483 24.0773L26.2325 27.7615L28.5895 25.4043L24.9053 21.7203C26.4153 19.1638 26.072 15.8159 23.8753 13.6193C21.2718 11.0158 17.0508 11.0158 14.4473 13.6193C11.8438 16.2228 11.8438 20.4438 14.4473 23.0473C16.6439 25.244 19.9918 25.5873 22.5483 24.0773ZM21.5183 20.6903C20.2167 21.9922 18.1062 21.9922 16.8043 20.6903C15.5026 19.3887 15.5026 17.278 16.8043 15.9763C18.1062 14.6746 20.2167 14.6746 21.5183 15.9763C22.8202 17.278 22.8202 19.3887 21.5183 20.6903Z" fill="black"/>
</svg>
