<svg width="40" height="40" viewBox="0 0 40 40" fill="none" xmlns="http://www.w3.org/2000/svg">
<path d="M10.2842 30C10.9706 28.058 12.8226 26.6667 14.9997 26.6667C17.1767 26.6667 19.0288 28.058 19.7152 30H36.6663V33.3333H19.7152C19.0288 35.2753 17.1767 36.6667 14.9997 36.6667C12.8226 36.6667 10.9706 35.2753 10.2842 33.3333H3.33301V30H10.2842ZM20.2842 18.3333C20.9705 16.3913 22.8227 15 24.9997 15C27.1767 15 29.0288 16.3913 29.7152 18.3333H36.6663V21.6667H29.7152C29.0288 23.6087 27.1767 25 24.9997 25C22.8227 25 20.9705 23.6087 20.2842 21.6667H3.33301V18.3333H20.2842ZM10.2842 6.66666C10.9706 4.72468 12.8226 3.33333 14.9997 3.33333C17.1767 3.33333 19.0288 4.72468 19.7152 6.66666H36.6663V10H19.7152C19.0288 11.942 17.1767 13.3333 14.9997 13.3333C12.8226 13.3333 10.9706 11.942 10.2842 10H3.33301V6.66666H10.2842Z" fill="black"/>
</svg>
