<svg width="30" height="36" viewBox="0 0 30 36" fill="none" xmlns="http://www.w3.org/2000/svg">
<path d="M26.25 14.25H25.125C24.5 14.125 24.125 13.625 24.125 13V10.5C24.125 5 20 0.5 15 0.5C10 0.5 5.875 5 5.875 10.5V13C5.875 13.625 5.5 14.125 4.875 14.25H3.75C1.625 14.25 0 15.875 0 18V31.75C0 33.875 1.625 35.5 3.75 35.5H26.25C28.375 35.5 30 33.875 30 31.75V18C30 15.875 28.375 14.25 26.25 14.25ZM8.375 13V10.5C8.375 6.375 11.375 3 15 3C18.625 3 21.625 6.375 21.625 10.5V13C21.625 13.375 21.75 13.875 21.875 14.25H8.125C8.25 13.875 8.375 13.375 8.375 13ZM16.25 25.125V28C16.25 28.75 15.75 29.25 15 29.25C14.25 29.25 13.75 28.75 13.75 28V25.125C12.5 24.375 12.125 22.875 12.875 21.75C13.625 20.5 15.125 20.125 16.25 20.875C17.375 21.625 17.875 23.125 17.125 24.25C17 24.625 16.625 24.875 16.25 25.125Z" fill="black"/>
</svg>
