<svg width="40" height="40" viewBox="0 0 40 40" fill="none" xmlns="http://www.w3.org/2000/svg">
<g clip-path="url(#clip0_163_3569)">
<path d="M23.75 0H4.58333C2.05 0 0 2.05 0 4.58333V30.4167C0 32.95 2.05 35 4.58333 35H18.15C16.6833 33 15.8333 30.5667 15.8333 27.9167C15.8333 21.25 21.25 15.8333 27.9167 15.8333C28.05 15.8333 28.2 15.8333 28.3333 15.85V4.58333C28.3333 2.05 26.2833 0 23.75 0ZM6.66667 6.66667H13.3333C14.25 6.66667 15 7.41667 15 8.33333C15 9.25 14.25 10 13.3333 10H6.66667C5.75 10 5 9.25 5 8.33333C5 7.41667 5.75 6.66667 6.66667 6.66667ZM15 23.3333H6.66667C5.75 23.3333 5 22.5833 5 21.6667C5 20.75 5.75 20 6.66667 20H15C15.9167 20 16.6667 20.75 16.6667 21.6667C16.6667 22.5833 15.9167 23.3333 15 23.3333ZM21.6667 16.6667H6.66667C5.75 16.6667 5 15.9167 5 15C5 14.0833 5.75 13.3333 6.66667 13.3333H21.6667C22.5833 13.3333 23.3333 14.0833 23.3333 15C23.3333 15.9167 22.5833 16.6667 21.6667 16.6667Z" fill="black"/>
<path d="M27.917 36.6667C23.092 36.6667 19.167 32.7417 19.167 27.9167C19.167 23.0917 23.092 19.1667 27.917 19.1667C32.742 19.1667 36.667 23.0917 36.667 27.9167C36.667 32.7417 32.742 36.6667 27.917 36.6667ZM27.917 22.5C24.9303 22.5 22.5003 24.93 22.5003 27.9167C22.5003 30.9033 24.9303 33.3333 27.917 33.3333C30.9037 33.3333 33.3337 30.9033 33.3337 27.9167C33.3337 24.93 30.9037 22.5 27.917 22.5Z" fill="black"/>
<path d="M38.3338 40C37.9071 40 37.4804 39.8367 37.1554 39.5117L31.7388 34.095C31.0871 33.4433 31.0871 32.39 31.7388 31.7383C32.3904 31.0867 33.4438 31.0867 34.0954 31.7383L39.5121 37.155C40.1638 37.8067 40.1638 38.86 39.5121 39.5117C39.1871 39.8367 38.7604 40 38.3338 40Z" fill="black"/>
</g>
<defs>
<clipPath id="clip0_163_3569">
<rect width="40" height="40" fill="white"/>
</clipPath>
</defs>
</svg>
