<svg width="38" height="38" viewBox="0 0 38 38" fill="none" xmlns="http://www.w3.org/2000/svg">
<path d="M9.27832 24H0.947021C0.505127 22.4052 0.25 20.7334 0.25 19C0.25 17.2666 0.505127 15.5948 0.947021 14H9.27832C9.10254 15.6016 9 17.269 9 19C9 20.731 9.10254 22.3984 9.27832 24ZM26.207 14H11.793C11.6099 15.5735 11.5 17.2385 11.5 19C11.5 20.7615 11.6099 22.4265 11.793 24H26.207C26.3901 22.4265 26.5 20.7615 26.5 19C26.5 17.2385 26.3901 15.5735 26.207 14ZM12.158 26.5C13.4275 33.3787 16.3279 37.75 19 37.75C21.6721 37.75 24.5725 33.3787 25.842 26.5H12.158ZM25.842 11.5C24.5725 4.62134 21.6721 0.25 19 0.25C16.3279 0.25 13.4275 4.62134 12.158 11.5H25.842ZM28.3689 26.5C27.6157 30.8646 26.2217 34.509 24.4102 36.9468C29.6885 35.3525 33.9854 31.4921 36.1741 26.5H28.3689ZM37.053 24C37.4949 22.4052 37.75 20.7334 37.75 19C37.75 17.2666 37.4949 15.5948 37.053 14H28.7217C28.8975 15.6016 29 17.269 29 19C29 20.731 28.8975 22.3984 28.7217 24H37.053ZM9.6311 11.5C10.3843 7.13538 11.7783 3.49097 13.5898 1.05322C8.31152 2.64746 4.01465 6.50793 1.82593 11.5H9.6311ZM9.6311 26.5H1.82593C4.01465 31.4921 8.31152 35.3525 13.5898 36.9468C11.7783 34.509 10.3843 30.8646 9.6311 26.5ZM28.3689 11.5H36.1741C33.9854 6.50793 29.6885 2.64746 24.4102 1.05322C26.2217 3.49097 27.6157 7.13538 28.3689 11.5Z" fill="black"/>
</svg>
