<svg width="40" height="40" viewBox="0 0 40 40" fill="none" xmlns="http://www.w3.org/2000/svg">
<g clip-path="url(#clip0_163_3575)">
<path d="M2.70336 5.40672H8.24836C9.23672 3.22219 10.8055 1.35461 12.756 0H2.70336C1.21031 0 0 1.21031 0 2.70336C0 4.19641 1.21031 5.40672 2.70336 5.40672Z" fill="black"/>
<path d="M20.2416 0C14.2703 0 9.42969 4.8407 9.42969 10.812C9.42969 14.0627 10.8643 16.9783 13.1348 18.9602C14.8518 20.459 17.5385 19.2154 17.5385 16.9362V16.8334C17.5385 16.0632 17.1971 15.3401 16.6252 14.8243C15.4587 13.7726 14.7511 12.2217 14.8444 10.5111C14.9942 7.76227 17.2309 5.5425 19.9808 5.4125C23.0795 5.26602 25.6473 7.74477 25.6473 10.812C25.6473 12.4184 24.9424 13.8625 23.8261 14.8531C23.2613 15.3543 22.9449 16.078 22.9449 16.8331V16.9361C22.9449 19.2148 25.6313 20.4591 27.3479 18.9605C28.9663 17.5478 30.1599 15.6606 30.7122 13.5159H39.9998V0C39.9998 0 20.3437 0 20.2416 0Z" fill="black"/>
<path d="M5.35051 7.75047C3.8577 7.75047 2.64746 8.96063 2.64746 10.4535C2.64746 11.9463 3.85762 13.1566 5.35051 13.1566H7.29731C7.15816 12.3887 7.08574 11.6045 7.08574 10.812C7.08574 9.75821 7.21105 8.73329 7.44621 7.75055L5.35051 7.75047Z" fill="black"/>
<path d="M38.8281 26.2572H23.9301C23.4245 24.5649 21.8545 23.3275 20 23.3275C18.1455 23.3275 16.5755 24.5649 16.0699 26.2572H1.17188C0.524687 26.2572 0 26.7819 0 27.4291C0 28.0762 0.524687 28.6009 1.17188 28.6009H16.0699C16.5755 30.2932 18.1455 31.5306 20 31.5306C21.8545 31.5306 23.4245 30.2932 23.9301 28.6009H38.8281C39.4753 28.6009 40 28.0762 40 27.4291C40 26.7819 39.4753 26.2572 38.8281 26.2572Z" fill="black"/>
<path d="M38.8281 34.7266H33.5398C33.0343 33.0343 31.4642 31.7969 29.6098 31.7969C27.7553 31.7969 26.1852 33.0343 25.6797 34.7266H1.17188C0.524687 34.7266 0 35.2513 0 35.8984C0 36.5456 0.524687 37.0703 1.17188 37.0703H25.6797C26.1852 38.7626 27.7553 40 29.6098 40C31.4642 40 33.0343 38.7626 33.5398 37.0703H38.8281C39.4753 37.0703 40 36.5456 40 35.8984C40 35.2513 39.4753 34.7266 38.8281 34.7266Z" fill="black"/>
</g>
<defs>
<clipPath id="clip0_163_3575">
<rect width="40" height="40" fill="white"/>
</clipPath>
</defs>
</svg>
