<svg width="40" height="40" viewBox="0 0 40 40" fill="none" xmlns="http://www.w3.org/2000/svg">
<path d="M3.41602 21.6665H12.5459C12.8442 27.1147 14.5961 32.1755 17.4205 36.4682C9.97983 35.3118 4.16732 29.2337 3.41602 21.6665ZM3.41602 18.3332C4.16732 10.7661 9.97983 4.68793 17.4205 3.53169C14.5961 7.82426 12.8442 12.8852 12.5459 18.3332H3.41602ZM36.5848 18.3332H27.4548C27.1565 12.8852 25.4046 7.82426 22.5803 3.53169C30.021 4.68793 35.8335 10.7661 36.5848 18.3332ZM36.5848 21.6665C35.8335 29.2337 30.021 35.3118 22.5803 36.4682C25.4046 32.1755 27.1565 27.1147 27.4548 21.6665H36.5848ZM15.8849 21.6665H24.1158C23.8298 26.3047 22.3581 30.622 20.0003 34.3192C17.6425 30.622 16.171 26.3047 15.8849 21.6665ZM15.8849 18.3332C16.171 13.6951 17.6425 9.37786 20.0003 5.68068C22.3581 9.37786 23.8298 13.6951 24.1158 18.3332H15.8849Z" fill="black"/>
</svg>
