<svg width="30" height="34" viewBox="0 0 30 34" fill="none" xmlns="http://www.w3.org/2000/svg">
<path d="M21.6667 0.333344L30 8.66668V32.0137C30 32.9267 29.2585 33.6667 28.3443 33.6667H1.65567C0.741267 33.6667 0 32.9078 0 32.0137V1.98634C0 1.07343 0.741583 0.333344 1.65567 0.333344H21.6667ZM17.5483 21.0773L21.2325 24.7615L23.5895 22.4043L19.9053 18.7203C21.4153 16.1638 21.072 12.8159 18.8753 10.6193C16.2718 8.01581 12.0508 8.01581 9.44732 10.6193C6.84383 13.2228 6.84383 17.4438 9.44732 20.0473C11.6439 22.244 14.9918 22.5873 17.5483 21.0773ZM16.5183 17.6903C15.2167 18.9922 13.1062 18.9922 11.8043 17.6903C10.5026 16.3887 10.5026 14.278 11.8043 12.9763C13.1062 11.6746 15.2167 11.6746 16.5183 12.9763C17.8202 14.278 17.8202 16.3887 16.5183 17.6903Z" fill="black"/>
</svg>
