<svg width="40" height="40" viewBox="0 0 40 40" fill="none" xmlns="http://www.w3.org/2000/svg">
<path d="M35.8333 18.1667V6.83334C35.8333 4.33334 34.7667 3.33334 32.1167 3.33334H25.3833C22.7333 3.33334 21.6667 4.33334 21.6667 6.83334V18.1667C21.6667 20.6667 22.7333 21.6667 25.3833 21.6667H32.1167C34.7667 21.6667 35.8333 20.6667 35.8333 18.1667Z" fill="black"/>
<path d="M18.3333 21.8333V33.1667C18.3333 35.6667 17.2667 36.6667 14.6167 36.6667H7.88332C5.23332 36.6667 4.16666 35.6667 4.16666 33.1667V21.8333C4.16666 19.3333 5.23332 18.3333 7.88332 18.3333H14.6167C17.2667 18.3333 18.3333 19.3333 18.3333 21.8333Z" fill="black"/>
<path d="M35.8333 33.1667V28.5C35.8333 26 34.7667 25 32.1167 25H25.3833C22.7333 25 21.6667 26 21.6667 28.5V33.1667C21.6667 35.6667 22.7333 36.6667 25.3833 36.6667H32.1167C34.7667 36.6667 35.8333 35.6667 35.8333 33.1667Z" fill="black"/>
<path d="M18.3333 11.5V6.83334C18.3333 4.33334 17.2667 3.33334 14.6167 3.33334H7.88332C5.23332 3.33334 4.16666 4.33334 4.16666 6.83334V11.5C4.16666 14 5.23332 15 7.88332 15H14.6167C17.2667 15 18.3333 14 18.3333 11.5Z" fill="black"/>
</svg>
