<svg width="130" height="30" viewBox="0 0 130 30" fill="none" xmlns="http://www.w3.org/2000/svg">
<g clip-path="url(#clip0_3168_901)">
<path d="M126.578 5.74811L129.679 8.9001C129.788 8.98717 129.868 9.1047 129.909 9.23782C129.973 10.0136 129.391 10.0561 128.797 10.0994C128.54 10.1182 128.28 10.1371 128.07 10.2157C127.027 10.5007 126.097 11.1025 125.405 11.9395C124.713 12.7765 124.293 13.8082 124.202 14.8945C124.135 15.02 124.034 15.1232 123.91 15.1919C123.787 15.2606 123.646 15.2916 123.505 15.2815C123.342 15.2668 123.189 15.1946 123.073 15.0774L122.055 14.0429C122.063 14.1137 122.063 14.1838 122.063 14.2402V14.9226C122.063 14.9657 122.064 15.0073 122.059 15.0487C122.052 15.0953 122.037 15.1416 122 15.1899V15.2533C122 15.2856 122.004 15.3157 122.008 15.3462C122.015 15.4087 122.023 15.473 122 15.5629C121.978 15.6466 121.976 15.7444 121.973 15.8316C121.972 15.8834 121.97 15.9316 121.965 15.9709C121.958 16.0254 121.958 16.0836 121.953 16.1417C121.949 16.1962 121.94 16.2505 121.916 16.3015C121.884 16.3729 121.872 16.4411 121.869 16.5104C121.867 16.5436 121.867 16.577 121.867 16.6111L121.826 16.8293L120.244 24.4418L120.119 25.0117L120.069 25.8419L119.373 29.4371L119.261 30H62.8641L62.5923 29.7256L62.5435 29.9648H56.5087L53.1498 26.5526L53.4703 25.0117H51.5749L50.3972 23.8086C48.9356 24.8831 47.1665 25.4464 45.3589 25.4128C43.4157 25.49 41.5213 24.7866 40.0906 23.4569L38.2578 21.5924L37.8606 23.4638C37.8119 23.7312 37.7491 23.9846 37.6794 24.2308L37.6167 24.463L37.5122 24.8006C37.5036 24.83 37.4919 24.8583 37.4774 24.8851C37.3736 25.1953 37.2503 25.4984 37.108 25.7927C37.1117 25.8041 37.1117 25.8164 37.108 25.8278C37.0897 25.8668 37.0688 25.9044 37.0452 25.9404C36.9401 26.1506 36.8238 26.3549 36.6968 26.5526C36.6733 26.5885 36.6524 26.6261 36.6342 26.6651L36.5575 26.7495C36.3871 26.9962 36.2009 27.2311 36 27.4531C35.9449 27.5087 35.8897 27.561 35.8337 27.6123C35.7765 27.6648 35.7184 27.7163 35.6585 27.7696L35.5052 27.9174C35.4086 27.9985 35.3097 28.0767 35.2088 28.1521C35.1255 28.2142 35.0408 28.2744 34.9547 28.3325C33.5185 29.1916 31.8619 29.6005 30.1951 29.5075C27.8955 29.5075 26.0557 28.832 24.892 27.6501L21.6167 24.3222C20.3085 25.0697 18.8271 25.4533 17.324 25.4338C15.3867 25.4944 13.5038 24.7815 12.0836 23.4498L10.2509 21.5854L9.65855 24.463L9.54007 25.0328H3.37284L0 21.5994L0.174216 20.7692L3.88154 2.79313L3.99301 2.23029H10.1812L10.3415 2.3851V2.23029H52.0348L52.1882 2.3851V2.23029H58.223L61.5958 5.66368L61.4286 6.48685L61.2474 7.38743H62.9826L63.2544 7.66185C64.0179 7.21008 64.8851 6.96754 65.77 6.95827C66.4208 6.94529 67.067 7.07009 67.6671 7.32456C68.2672 7.57905 68.8079 7.9575 69.2543 8.4357L69.1637 8.33018L70.8013 9.99765C71.7979 8.1051 74.0348 6.95827 77.0729 6.95827C79.4285 6.95827 81.1638 7.5633 82.2157 8.66085L83.4006 9.864L83.798 7.92915L83.9161 7.3663H89.9578L91.6864 9.1182L91.9301 7.9362L92.0489 7.37334H103.938L104.258 7.69703C105.063 7.2173 105.985 6.97364 106.92 6.99343C107.483 6.97127 108.043 7.07524 108.561 7.29785C109.079 7.52047 109.542 7.85625 109.916 8.28098C109.897 8.25885 109.878 8.23673 109.86 8.21498C109.826 8.17463 109.793 8.13525 109.757 8.0988L110.363 8.71012C110.89 8.15865 111.524 7.72193 112.225 7.42676C112.926 7.13158 113.679 6.98408 114.439 6.99343C114.842 6.9684 115.245 7.00305 115.635 7.09525L114.976 6.42355C114.886 6.32646 114.825 6.20566 114.8 6.07516C114.776 5.94466 114.789 5.80973 114.836 5.6861C114.884 5.56243 114.966 5.45507 115.072 5.3764C115.179 5.29774 115.304 5.25097 115.436 5.24156H115.965C116.108 5.22782 116.25 5.2067 116.39 5.17823C117.131 5.02106 117.828 4.69968 118.43 4.23728C119.033 3.77492 119.526 3.18314 119.875 2.50469C119.905 2.45221 119.933 2.39824 119.958 2.34288V2.30771C120.198 1.78661 120.344 1.22686 120.39 0.654312C120.402 0.476402 120.482 0.30983 120.611 0.18839C120.74 0.0669059 120.91 -0.00042738 121.087 2.04141e-06H121.143C121.248 0.0101364 121.351 0.044576 121.442 0.100658C121.532 0.156784 121.609 0.233049 121.666 0.323657C122.167 0.816157 124.955 3.67963 124.955 3.67963C125.187 3.93178 125.17 4.25914 125.152 4.59034C125.141 4.79514 125.13 5.00143 125.177 5.19231C125.304 5.21528 125.433 5.23268 125.561 5.24444C125.684 5.25565 125.807 5.26174 125.931 5.26265C126.075 5.2657 126.215 5.31405 126.331 5.40105C126.447 5.48801 126.534 5.60933 126.578 5.74811Z" fill="black"/>
<path d="M31.8954 8.06291H36.2995L33.8326 19.8757C33.3797 22.113 32.5156 23.3936 31.2055 24.3012C29.8804 25.0775 28.3588 25.4444 26.8292 25.3565C23.9163 25.3565 21.1218 24.1253 20.8431 21.1351H25.2752C25.4145 21.8387 26.0557 22.2397 27.0313 22.2397C28.3484 22.2397 28.9546 21.4377 29.2264 20.1783L29.4912 18.8766H29.3936C29.0047 19.3083 28.533 19.6555 28.0072 19.8974C27.4812 20.1393 26.9122 20.2707 26.3344 20.2838C23.77 20.2838 21.7351 18.2223 21.7769 15.204C21.8327 11.6862 24.1044 7.69001 27.9163 7.69001C28.6387 7.64089 29.3598 7.80161 29.9946 8.15321C30.6294 8.50474 31.1511 9.03251 31.4981 9.67406H31.5748L31.8954 8.06291ZM28.1114 16.9841C29.8048 16.9841 30.7456 15.0141 30.7734 13.3185C30.7734 12.1858 30.3344 11.0249 29.0383 11.0249C27.2682 11.0249 26.3692 13.016 26.3414 14.7256C26.3414 15.8795 26.7804 16.9841 28.0765 16.9841M77.5543 17.364C77.5543 18.1168 76.9124 18.4194 76.0693 18.4194C74.6757 18.4194 74.2089 17.7158 74.202 16.7308H69.8187C69.7421 20.4034 72.9895 21.311 75.8746 21.311C79.5607 21.311 81.9512 19.6998 82.0003 16.4846C82.0003 13.9165 79.8326 13.1356 77.7006 12.636C76.0626 12.2562 75.345 11.9817 75.3517 11.3556C75.3591 10.7294 76.0908 10.4761 76.8084 10.4761C77.7073 10.4761 78.3201 10.7997 78.3833 11.63H82.6413C82.5923 8.56241 79.8534 7.66189 77.0662 7.66189C73.6794 7.66189 71.0382 9.21671 70.9964 12.1576C70.9964 14.4723 72.5435 15.3237 74.8777 15.9288C76.3761 16.3298 77.5676 16.4564 77.5543 17.364ZM110.118 9.96956H110.042C109.852 9.27671 109.433 8.67019 108.855 8.25041C108.277 7.83071 107.575 7.62304 106.864 7.66189C104.969 7.66189 103.812 8.61169 102.718 10.047H102.641L103.045 8.06291H98.6128L95.9578 20.8818H100.592L101.986 13.9658C102.306 12.4602 103.066 11.4048 104.216 11.4048C105.366 11.4048 105.519 12.3335 105.282 13.4663L103.749 20.8818H108.383L109.777 13.9658C110.097 12.3617 110.857 11.4048 112.006 11.4048C113.156 11.4048 113.31 12.2843 113.073 13.4663L111.54 20.8818H116.174L117.833 13.2622C118.53 10.047 117.464 7.63369 114.404 7.63369C113.553 7.63016 112.715 7.84211 111.966 8.25019C111.218 8.65826 110.582 9.24941 110.118 9.96956ZM0.850098 20.8818H5.63755L9.3379 2.90576H4.55742L0.850098 20.8818ZM15.2612 7.68296C18.4947 7.68296 21.5818 9.46999 21.533 13.5155C21.4912 17.9409 18.5086 21.2547 13.9511 21.2547C10.8152 21.2547 7.6794 19.4958 7.73511 15.4714C7.81178 11.1516 10.7525 7.68296 15.2612 7.68296ZM14.0836 18.1168C16.1254 18.1168 16.871 15.1266 16.871 13.3677C16.871 12.1084 16.4878 10.8771 15.1427 10.8771C13.1219 10.8771 12.432 14.0432 12.432 15.6755C12.432 16.9841 12.7943 18.1168 14.1114 18.1168M10.9337 2.90576L10.2368 6.50098H50.4389L51.1358 2.90576H10.9337ZM43.2682 7.68296C46.5016 7.68296 49.5887 9.46999 49.54 13.5155C49.4982 17.9409 46.5086 21.2547 41.9511 21.2547C38.8152 21.2547 35.6793 19.4958 35.7421 15.4714C35.8396 11.1516 38.7804 7.68296 43.2682 7.68296ZM42.1114 18.1168C44.1532 18.1168 44.8988 15.1266 44.8988 13.3677C44.8988 12.1084 44.5086 10.8771 43.1637 10.8771C41.1497 10.8771 40.4528 14.0432 40.4528 15.6755C40.4528 16.9841 40.8152 18.1168 42.1393 18.1168M52.7804 2.90576L52.0835 6.50098H56.7107L57.4076 2.90576H52.7804ZM49.0731 20.8818H53.7072L56.3622 8.06291H51.7002L49.0731 20.8818ZM63.8605 21.311C63.123 21.3639 62.3854 21.2082 61.7305 20.8615C61.0757 20.5148 60.5295 19.9907 60.1532 19.3481H60.0765L58.6829 25.8349H53.9929L57.756 8.06291H62.1602L61.8118 9.77254C62.2717 9.14104 62.8674 8.62301 63.5542 8.25739C64.241 7.89184 65.0009 7.68821 65.7769 7.66189C68.5643 7.66189 70.202 10.0751 70.1532 13.213C70.0905 17.16 68.0626 21.311 63.8326 21.311H63.8605ZM63.6793 11.2923C61.8884 11.2923 60.7874 13.607 60.7595 15.387C60.7595 16.6253 61.1916 18.0042 62.6619 18.0042C64.5783 18.0042 65.3658 15.4433 65.3866 13.7336C65.3866 12.5727 65.0522 11.2923 63.6793 11.2923ZM90.474 18.8626H90.5505L90.1464 20.8959H94.5501L97.2058 8.07694H92.5785L91.101 15.2392C90.8016 16.7238 89.8953 17.5047 88.7528 17.5047C87.6096 17.5047 87.3585 16.4212 87.5888 15.2885L89.0871 8.07694H84.4599L82.8219 15.9921C82.1251 19.4395 83.714 21.297 86.3764 21.297C87.2121 21.2887 88.0315 21.0581 88.7506 20.6282C89.4697 20.1983 90.0647 19.5844 90.474 18.8485V18.8626ZM115.331 25.8983L116.028 22.303H61.0731L60.3762 25.8983H115.331Z" fill="white"/>
<path d="M120.313 11.5807C120.268 11.5771 120.223 11.5645 120.182 11.5434C120.141 11.5224 120.104 11.4934 120.075 11.458C120.045 11.4227 120.023 11.3818 120.009 11.3377C119.994 11.2935 119.989 11.247 119.993 11.2007C120.051 10.5742 119.977 9.9422 119.777 9.3464C119.576 8.7506 119.253 8.20423 118.828 7.74328C118.404 7.2823 117.888 6.91703 117.314 6.67141C116.74 6.42579 116.121 6.30536 115.498 6.318C115.406 6.318 115.317 6.28094 115.252 6.21496C115.187 6.14899 115.15 6.05951 115.15 5.96621C115.15 5.87291 115.187 5.78344 115.252 5.71747C115.317 5.6515 115.406 5.61443 115.498 5.61443C115.665 5.62534 115.833 5.62534 116 5.61443C117.238 5.4813 118.391 4.91671 119.261 4.01781C120.131 3.11891 120.663 1.94194 120.766 0.68948C120.774 0.601143 120.813 0.518743 120.878 0.458741C120.942 0.398739 121.027 0.365562 121.115 0.365847C121.161 0.369398 121.205 0.382064 121.246 0.40311C121.287 0.424155 121.323 0.453168 121.353 0.488478C121.384 0.52379 121.406 0.564699 121.42 0.608856C121.434 0.653013 121.439 0.69954 121.436 0.745767C121.378 1.37176 121.451 2.00308 121.651 2.59841C121.852 3.19374 122.174 3.73969 122.597 4.20056C123.022 4.66143 123.536 5.02684 124.109 5.27291C124.683 5.51898 125.301 5.64015 125.923 5.6285C126.015 5.6285 126.104 5.66557 126.17 5.73154C126.235 5.79751 126.272 5.88699 126.272 5.98029C126.272 6.07359 126.235 6.16307 126.17 6.22904C126.104 6.29501 126.015 6.33207 125.923 6.33207C124.599 6.35415 123.33 6.86905 122.359 7.778C121.388 8.68693 120.783 9.92585 120.662 11.257C120.655 11.3454 120.615 11.4278 120.551 11.4878C120.486 11.5478 120.402 11.581 120.313 11.5807Z" fill="white"/>
</g>
<defs>
<clipPath id="clip0_3168_901">
<rect width="130" height="30" fill="white"/>
</clipPath>
</defs>
</svg>
