<svg width="121" height="32" viewBox="0 0 121 32" fill="none" xmlns="http://www.w3.org/2000/svg">
<path d="M35.978 10.0699H38.9054V22.1999H35.978V10.0699ZM40.0667 17.6199C40.0667 14.6199 41.8621 12.8299 44.6334 12.8299C47.4047 12.8299 49.2002 14.6199 49.2002 17.6199C49.2002 20.6199 47.4438 22.4199 44.6334 22.4199C41.8231 22.4199 40.0667 20.6699 40.0667 17.6199ZM46.263 17.6199C46.263 15.9699 45.6288 14.9999 44.6334 14.9999C43.6381 14.9999 43.0136 15.9999 43.0136 17.6199C43.0136 19.2399 43.6284 20.2199 44.6334 20.2199C45.6385 20.2199 46.263 19.2999 46.263 17.6299V17.6199ZM50.3029 22.7899H53.1132C53.247 23.0944 53.4731 23.3465 53.7579 23.5087C54.0427 23.6708 54.3711 23.7344 54.694 23.6899C55.8064 23.6899 56.3919 23.0699 56.3919 22.1699V20.4899H56.3334C56.1001 21.0048 55.7216 21.4362 55.2468 21.7286C54.772 22.0209 54.2225 22.1607 53.6694 22.1299C51.5324 22.1299 50.1175 20.4599 50.1175 17.5899C50.1175 14.7199 51.4641 12.9099 53.7084 12.9099C54.2789 12.887 54.8425 13.0433 55.3239 13.3578C55.8052 13.6724 56.1813 14.1302 56.4017 14.6699V12.9999H59.3291V22.0999C59.3291 24.2899 57.4458 25.6499 54.6647 25.6499C52.0788 25.6499 50.4688 24.4599 50.3029 22.7999V22.7899ZM56.4017 17.6099C56.4017 16.1499 55.7479 15.2299 54.7135 15.2299C53.6792 15.2299 53.0449 16.1399 53.0449 17.6099C53.0449 19.0799 53.6694 19.9099 54.7135 19.9099C55.7576 19.9099 56.4017 19.0999 56.4017 17.6199V17.6099ZM60.4317 17.6099C60.4317 14.6099 62.2272 12.8199 64.9985 12.8199C67.7698 12.8199 69.575 14.6099 69.575 17.6099C69.575 20.6099 67.8186 22.4099 64.9985 22.4099C62.1784 22.4099 60.4317 20.6699 60.4317 17.6199V17.6099ZM66.6281 17.6099C66.6281 15.9599 65.9938 14.9899 64.9985 14.9899C64.0032 14.9899 63.4275 15.9999 63.4275 17.6299C63.4275 19.2599 64.0422 20.2299 65.0375 20.2299C66.0329 20.2299 66.6281 19.2999 66.6281 17.6299V17.6099ZM70.6875 10.8199C70.6798 10.517 70.7601 10.2186 70.918 9.96255C71.0761 9.70645 71.3048 9.50421 71.5751 9.38145C71.8454 9.25869 72.1451 9.22094 72.4364 9.27299C72.7277 9.32505 72.9973 9.46456 73.2111 9.67383C73.425 9.88311 73.5733 10.1527 73.6374 10.4485C73.7015 10.7443 73.6785 11.0529 73.5712 11.3353C73.4639 11.6176 73.2773 11.861 73.0349 12.0345C72.7926 12.208 72.5053 12.3039 72.2097 12.3099C72.0138 12.3237 71.8172 12.2958 71.6322 12.228C71.4472 12.1602 71.278 12.054 71.1351 11.9159C70.9921 11.7779 70.8785 11.611 70.8015 11.4258C70.7244 11.2407 70.6856 11.0412 70.6875 10.8399V10.8199ZM70.6875 13.0199H73.6149V22.1999H70.6875V13.0199ZM84.2414 17.6099C84.2414 20.6099 82.9436 22.3199 80.7188 22.3199C80.1483 22.3574 79.5803 22.2145 79.0916 21.9105C78.6029 21.6064 78.2172 21.1559 77.9865 20.6199H77.9279V25.1399H75.0005V12.9999H77.9279V14.6399H77.9865C78.2064 14.095 78.5849 13.6328 79.0702 13.3161C79.5556 12.9994 80.1244 12.8436 80.6992 12.8699C82.9436 12.9099 84.2805 14.6299 84.2805 17.6299L84.2414 17.6099ZM81.314 17.6099C81.314 16.1499 80.6602 15.2199 79.6356 15.2199C78.611 15.2199 77.9572 16.1599 77.9475 17.6099C77.9377 19.0599 78.611 19.9899 79.6356 19.9899C80.6602 19.9899 81.314 19.0799 81.314 17.6299V17.6099ZM89.2668 12.8099C91.6966 12.8099 93.17 13.9899 93.2384 15.8799H90.5744C90.5744 15.2299 90.0475 14.8199 89.2375 14.8199C88.4276 14.8199 88.0666 15.1399 88.0666 15.6099C88.0666 16.0799 88.3886 16.2299 89.0424 16.3699L90.9159 16.7599C92.7017 17.1499 93.4628 17.8899 93.4628 19.2799C93.4628 21.1799 91.7746 22.3999 89.2863 22.3999C86.798 22.3999 85.1684 21.1799 85.0416 19.3099H87.8617C87.9495 19.9899 88.4764 20.3899 89.3351 20.3899C90.1938 20.3899 90.5842 20.0999 90.5842 19.6199C90.5842 19.1399 90.3109 19.0399 89.6084 18.8899L87.9202 18.5199C86.1735 18.1499 85.2563 17.1999 85.2563 15.7999C85.2758 13.9999 86.8468 12.8299 89.2668 12.8299V12.8099ZM103.231 22.1799H100.411V20.4699H100.352C100.197 21.044 99.8553 21.5465 99.383 21.894C98.9107 22.2414 98.3369 22.4129 97.7563 22.3799C97.3116 22.4058 96.8666 22.3336 96.4514 22.1681C96.0362 22.0026 95.6605 21.7478 95.3497 21.4207C95.0389 21.0937 94.8001 20.702 94.6498 20.2723C94.4993 19.8426 94.4406 19.3848 94.4776 18.9299V12.9999H97.405V18.2399C97.405 19.3299 97.9515 19.9099 98.859 19.9099C99.0717 19.9103 99.2825 19.8642 99.4767 19.7745C99.6699 19.6848 99.8436 19.5536 99.9841 19.3898C100.124 19.2259 100.229 19.0332 100.291 18.8246C100.352 18.6159 100.371 18.3961 100.342 18.1799V12.9999H103.27L103.231 22.1799ZM104.646 12.9999H107.475V14.7699H107.534C107.689 14.2034 108.024 13.7056 108.484 13.3546C108.945 13.0036 109.507 12.819 110.081 12.8299C110.665 12.782 111.245 12.9611 111.706 13.3317C112.167 13.7023 112.475 14.2371 112.569 14.8299H112.628C112.804 14.2308 113.171 13.7092 113.67 13.3471C114.167 12.985 114.77 12.803 115.379 12.8299C115.778 12.8162 116.174 12.8885 116.543 13.0421C116.912 13.1956 117.245 13.4271 117.521 13.7213C117.797 14.0156 118.01 14.3661 118.146 14.75C118.28 15.1339 118.336 15.5428 118.307 15.9499V22.1999H115.379V16.7499C115.379 15.7499 114.94 15.2899 114.121 15.2899C113.938 15.2883 113.757 15.3269 113.59 15.4031C113.423 15.4793 113.274 15.5913 113.153 15.7316C113.032 15.8719 112.941 16.0371 112.887 16.2162C112.834 16.3954 112.819 16.5842 112.842 16.7699V22.1999H110.061V16.7099C110.061 15.7899 109.622 15.2899 108.822 15.2899C108.638 15.29 108.454 15.3302 108.286 15.4079C108.117 15.4857 107.966 15.5992 107.844 15.7409C107.721 15.8826 107.63 16.0494 107.574 16.2303C107.519 16.4111 107.502 16.6018 107.524 16.7899V22.1999H104.597L104.646 12.9999Z" fill="black"/>
<path d="M27.791 10.62C27.2944 9.45637 26.6372 8.37194 25.8394 7.40001C24.6602 5.92035 23.1884 4.7134 21.5212 3.85861C19.8539 3.00383 18.0289 2.52058 16.1663 2.44067C14.3036 2.36076 12.4456 2.686 10.7144 3.395C8.98331 4.10399 7.41831 5.18066 6.12247 6.55414C4.82662 7.92761 3.8293 9.56676 3.19614 11.3637C2.56299 13.1606 2.30835 15.0746 2.44901 16.9796C2.58967 18.8847 3.12241 20.7376 4.01219 22.4164C4.90197 24.0953 6.12861 25.562 7.61137 26.72C8.56278 27.4779 9.61406 28.094 10.7339 28.55C12.304 29.2094 13.9844 29.549 15.6813 29.55C19.1838 29.5421 22.5404 28.1113 25.0154 25.5713C27.4902 23.0313 28.8814 19.5894 28.8839 16C28.8865 14.1485 28.5144 12.3166 27.791 10.62ZM15.6715 5.19C17.1953 5.18984 18.7007 5.53114 20.0822 6.19C19.7453 6.33917 19.3911 6.44336 19.0283 6.50001C17.8345 6.6771 16.7286 7.24508 15.8757 8.11918C15.0227 8.99327 14.4684 10.1266 14.2956 11.35C14.2198 12.0361 13.9153 12.6744 13.4335 13.1572C12.9517 13.64 12.3223 13.9376 11.6512 14C10.4574 14.1771 9.35148 14.7451 8.49854 15.6192C7.6456 16.4933 7.09135 17.6266 6.91854 18.85C6.86003 19.5024 6.58842 20.1155 6.14766 20.59C5.38716 18.9433 5.04553 17.1261 5.15455 15.3077C5.26356 13.4893 5.81969 11.7287 6.77117 10.1897C7.72264 8.6508 9.03855 7.38352 10.5964 6.50585C12.1543 5.62818 13.9036 5.16865 15.6813 5.17L15.6715 5.19ZM7.60161 23C7.7187 22.89 7.8358 22.79 7.9529 22.67C8.82102 21.8075 9.37827 20.6689 9.5337 19.44C9.59672 18.7492 9.89767 18.104 10.3826 17.62C10.8494 17.1222 11.4775 16.8163 12.1489 16.76C13.3427 16.5829 14.4485 16.0149 15.3015 15.1408C16.1544 14.2667 16.7087 13.1334 16.8815 11.91C16.9238 11.1875 17.2263 10.5068 17.7305 10C18.2087 9.51186 18.8428 9.21711 19.5162 9.17C20.6129 9.01537 21.6357 8.51572 22.4436 7.74001C23.3635 8.52208 24.1428 9.4629 24.7465 10.52C24.7094 10.5713 24.6669 10.6183 24.6197 10.66C24.1539 11.1622 23.5266 11.4748 22.8535 11.54C21.6584 11.714 20.5508 12.281 19.6973 13.1556C18.8439 14.0303 18.2906 15.1653 18.1208 16.39C18.052 17.0784 17.7531 17.7213 17.2748 18.2097C16.7963 18.6982 16.1679 19.0021 15.4959 19.07C14.2986 19.2457 13.1886 19.8126 12.3306 20.6863C11.4728 21.5601 10.9128 22.6941 10.7339 23.92C10.6814 24.4087 10.5176 24.878 10.2558 25.29C9.25461 24.6808 8.35794 23.9072 7.60161 23ZM15.6715 26.86C14.6814 26.8611 13.6959 26.7197 12.7441 26.44C13.0697 25.818 13.2814 25.1401 13.3686 24.44C13.437 23.7531 13.7345 23.1114 14.2109 22.6232C14.6873 22.135 15.3135 21.8301 15.9838 21.76C17.1793 21.5849 18.2875 21.0178 19.1424 20.1435C19.9972 19.2693 20.5529 18.1348 20.7262 16.91C20.7946 16.2231 21.0921 15.5814 21.5685 15.0932C22.0449 14.605 22.6711 14.3001 23.3414 14.23C24.241 14.1101 25.0986 13.7668 25.8394 13.23C26.2508 14.8279 26.2995 16.5011 25.9819 18.1213C25.6643 19.7415 24.9886 21.2657 24.007 22.5768C23.0253 23.8878 21.7637 24.9511 20.3187 25.6849C18.8738 26.4187 17.2841 26.8036 15.6715 26.81V26.86Z" fill="black"/>
</svg>
