<svg width="99" height="26" viewBox="0 0 99 26" fill="none" xmlns="http://www.w3.org/2000/svg">
<path d="M2.44678 23.6875H23.7859V2.3125H2.44678V23.6875ZM19.6786 10.9433H15.1695V6.42667H19.6786V10.9433ZM6.5532 6.42667H11.0648V15.0567H19.6786V19.5733H6.5532V6.42667ZM37.6816 2.3125C35.5714 2.3125 33.5085 2.93932 31.754 4.11368C29.9993 5.28803 28.6318 6.95719 27.8242 8.91008C27.0167 10.863 26.8055 13.0118 27.2171 15.085C27.6288 17.1582 28.6449 19.0625 30.1371 20.5572C31.6292 22.0519 33.5304 23.0698 35.6001 23.4822C37.6698 23.8945 39.8151 23.6829 41.7647 22.874C43.7143 22.0651 45.3806 20.6953 46.553 18.9377C47.7254 17.1801 48.3512 15.1138 48.3512 13C48.3479 10.1665 47.2227 7.45003 45.2225 5.44646C43.2222 3.44288 40.5104 2.31581 37.6816 2.3125ZM37.6816 19.5733C36.3837 19.5733 35.115 19.1878 34.0358 18.4655C32.9567 17.7433 32.1155 16.7167 31.6189 15.5155C31.1222 14.3144 30.9922 12.9928 31.2454 11.7176C31.4986 10.4425 32.1237 9.27125 33.0414 8.35195C33.9592 7.43266 35.1284 6.80661 36.4014 6.55298C37.6743 6.29934 38.9938 6.42952 40.1929 6.92703C41.392 7.42455 42.4169 8.26708 43.138 9.34808C43.8591 10.429 44.2439 11.6999 44.2439 13C44.2413 14.7426 43.549 16.413 42.3189 17.6452C41.0888 18.8773 39.4212 19.5707 37.6816 19.5733ZM86.5319 2.3125C84.4213 2.31234 82.3587 2.93901 80.604 4.11327C78.8493 5.28752 77.4816 6.95663 76.6739 8.9095C75.8663 10.8623 75.6548 13.0113 76.0664 15.0845C76.478 17.1578 77.4941 19.0622 78.9863 20.5569C80.4783 22.0517 82.3795 23.0697 84.4496 23.4821C86.5186 23.8945 88.6641 23.6829 90.6142 22.8741C92.5634 22.0652 94.2298 20.6953 95.402 18.9378C96.575 17.1802 97.2006 15.1138 97.2006 13C97.1973 10.1667 96.0725 7.4503 94.0725 5.44675C92.0726 3.44319 89.3605 2.31603 86.5319 2.3125ZM86.5319 19.5733C85.2341 19.5735 83.9654 19.1881 82.8859 18.4659C81.8066 17.7438 80.9654 16.7172 80.4685 15.5161C79.9717 14.315 79.8417 12.9933 80.0947 11.7181C80.3479 10.443 80.9728 9.27167 81.8905 8.35225C82.8083 7.43287 83.9779 6.80673 85.2507 6.55303C86.5236 6.29933 87.843 6.42946 89.0418 6.92696C90.2415 7.42445 91.2664 8.26697 91.9877 9.348C92.7082 10.429 93.0934 11.6999 93.0934 13C93.0909 14.7424 92.3987 16.4127 91.1683 17.6448C89.9387 18.877 88.2715 19.5705 86.5319 19.5733ZM62.1064 2.3125C59.9961 2.3125 57.9332 2.93932 56.1787 4.11368C54.424 5.28803 53.0565 6.95719 52.249 8.91008C51.4414 10.863 51.2302 13.0118 51.6418 15.085C52.0535 17.1582 53.0697 19.0625 54.5618 20.5572C56.054 22.0519 57.9551 23.0698 60.0248 23.4822C62.0945 23.8945 64.2398 23.6829 66.1894 22.874C68.139 22.0651 69.8053 20.6953 70.9778 18.9377C72.1501 17.1801 72.7759 15.1138 72.7759 13C72.7726 10.1665 71.6474 7.45003 69.6472 5.44646C67.6469 3.44288 64.9351 2.31581 62.1064 2.3125ZM62.1064 19.5733C60.8971 19.5739 59.7112 19.2398 58.6795 18.6079C57.6479 17.976 56.8106 17.0709 56.2601 15.9924C55.7097 14.9139 55.4674 13.704 55.56 12.4963C55.6527 11.2886 56.0767 10.13 56.7852 9.14842C57.4938 8.16688 58.4593 7.40051 59.5752 6.93393C60.6912 6.46733 61.9141 6.31868 63.109 6.50437C64.304 6.69006 65.4244 7.20286 66.3468 7.98618C67.2692 8.7695 67.9575 9.79292 68.3359 10.9433H62.1064V15.0567H68.3359C67.9025 16.3694 67.0676 17.5123 65.9494 18.3229C64.8313 19.1337 63.4867 19.5711 62.1064 19.5733Z" fill="black"/>
</svg>
