<svg width="99" height="24" viewBox="0 0 99 24" fill="none" xmlns="http://www.w3.org/2000/svg">
<g clip-path="url(#clip0_3168_876)">
<path fill-rule="evenodd" clip-rule="evenodd" d="M5.86666 1.9375V23.5H0V1.9375H5.86666Z" fill="black"/>
<path fill-rule="evenodd" clip-rule="evenodd" d="M8.80005 1.9375H21.2667C25.3168 1.9375 28.6 5.15545 28.6 9.125C28.6 13.0946 25.3168 16.3125 21.2667 16.3125H14.6667V23.5H8.80005V1.9375ZM14.6667 10.5625H21.2667C22.0768 10.5625 22.7334 9.9189 22.7334 9.125C22.7334 8.3311 22.0768 7.6875 21.2667 7.6875H14.6667V10.5625Z" fill="black"/>
<path fill-rule="evenodd" clip-rule="evenodd" d="M50.6001 1.9375V13.0781C50.6001 15.6583 52.7341 17.75 55.3667 17.75C57.9993 17.75 60.1335 15.6583 60.1335 13.0781V1.9375H66.0002V13.0781C66.0002 18.834 61.2395 23.5 55.3667 23.5C49.4941 23.5 44.7334 18.834 44.7334 13.0781V1.9375H50.6001Z" fill="black"/>
<path fill-rule="evenodd" clip-rule="evenodd" d="M30.8 12C30.8 6.44263 35.3965 1.9375 41.0667 1.9375H42.5333V7.6875H41.0667C38.6366 7.6875 36.6667 9.61829 36.6667 12V12.7188C36.6667 18.673 31.7418 23.5 25.6667 23.5H24.9333V17.75H25.6667C28.5017 17.75 30.8 15.4974 30.8 12.7188V12Z" fill="black"/>
<path d="M99 2.65625C99 3.84712 98.0153 4.8125 96.7998 4.8125C95.5848 4.8125 94.6001 3.84712 94.6001 2.65625C94.6001 1.46538 95.5848 0.5 96.7998 0.5C98.0153 0.5 99 1.46538 99 2.65625Z" fill="black"/>
<path d="M72.2992 23.5L75.0987 12.0104L77.1801 18.9226C78.4208 23.0452 84.379 23.0452 85.6203 18.9226L87.701 12.0104L90.5006 23.5H96.5319L92.1303 5.43321C91.0834 1.13678 84.9062 0.977706 83.6303 5.21438L81.4002 12.6229L79.1695 5.21439C77.8942 0.977731 71.7163 1.13676 70.6695 5.43321L66.2678 23.5H72.2992Z" fill="black"/>
</g>
<defs>
<clipPath id="clip0_3168_876">
<rect width="99" height="23" fill="white" transform="translate(0 0.5)"/>
</clipPath>
</defs>
</svg>
