<svg width="101" height="24" viewBox="0 0 101 24" fill="none" xmlns="http://www.w3.org/2000/svg">
<g clip-path="url(#clip0_3168_873)">
<path fill-rule="evenodd" clip-rule="evenodd" d="M8.60795 16.6C7.84696 16.6 7.11714 16.2971 6.57904 15.7579C6.04094 15.2188 5.73864 14.4875 5.73864 13.725V0.5H0V13.725C0 18.4883 3.85407 22.35 8.60795 22.35H14.9205V16.6H8.60795ZM25.8239 6.25C25.1456 6.25 24.474 6.38386 23.8474 6.64392C23.2208 6.90399 22.6514 7.28518 22.1718 7.76572C21.6922 8.24627 21.3118 8.81675 21.0522 9.44461C20.7927 10.0725 20.6591 10.7454 20.6591 11.425C20.6591 12.1046 20.7927 12.7775 21.0522 13.4054C21.3118 14.0332 21.6922 14.6037 22.1718 15.0843C22.6514 15.5648 23.2208 15.946 23.8474 16.2061C24.474 16.4661 25.1456 16.6 25.8239 16.6C27.1936 16.6 28.5073 16.0548 29.4759 15.0843C30.4445 14.1138 30.9886 12.7975 30.9886 11.425C30.9886 10.0525 30.4445 8.73622 29.4759 7.76572C28.5073 6.79522 27.1936 6.25 25.8239 6.25ZM14.9205 11.425C14.9205 5.39152 19.8023 0.5 25.8239 0.5C31.8454 0.5 36.7273 5.39152 36.7273 11.425C36.7273 17.4585 31.8454 22.35 25.8239 22.35C19.8023 22.35 14.9205 17.4585 14.9205 11.425ZM87.8011 6.25C86.4314 6.25 85.1177 6.79522 84.1491 7.76572C83.1805 8.73622 82.6364 10.0525 82.6364 11.425C82.6364 12.7975 83.1805 14.1138 84.1491 15.0843C85.1177 16.0548 86.4314 16.6 87.8011 16.6C89.1709 16.6 90.4846 16.0548 91.4532 15.0843C92.4218 14.1138 92.9659 12.7975 92.9659 11.425C92.9659 10.0525 92.4218 8.73622 91.4532 7.76572C90.4846 6.79522 89.1709 6.25 87.8011 6.25ZM76.8977 11.425C76.8977 5.39152 81.7796 0.5 87.8011 0.5C93.8227 0.5 98.7045 5.39152 98.7045 11.425C98.7045 17.4585 93.8227 22.35 87.8011 22.35C81.7796 22.35 76.8977 17.4585 76.8977 11.425ZM48.7784 0.5C42.7569 0.5 37.875 5.39152 37.875 11.425C37.875 17.4585 42.7569 22.35 48.7784 22.35H64.8466C65.9765 22.35 67.0663 22.1775 68.0912 21.8578L71.1591 23.5L74.4691 17.2877C75.31 15.7063 75.7498 13.9419 75.75 12.1501V11.425C75.75 5.39152 70.8681 0.5 64.8466 0.5H48.7784ZM70.0114 11.425C70.0114 10.0525 69.4672 8.73622 68.4986 7.76572C67.5301 6.79522 66.2164 6.25 64.8466 6.25H48.7784C48.1002 6.25 47.4286 6.38386 46.8019 6.64392C46.1753 6.90399 45.606 7.28518 45.1264 7.76572C44.6468 8.24627 44.2663 8.81675 44.0068 9.44461C43.7472 10.0725 43.6136 10.7454 43.6136 11.425C43.6136 12.1046 43.7472 12.7775 44.0068 13.4054C44.2663 14.0332 44.6468 14.6037 45.1264 15.0843C45.606 15.5648 46.1753 15.946 46.8019 16.2061C47.4286 16.4661 48.1002 16.6 48.7784 16.6H64.8466C66.2094 16.6 67.5171 16.0603 68.4845 15.0985C69.4519 14.1367 70.0008 12.8308 70.0114 11.4653V11.425Z" fill="black"/>
<path d="M101 1.9375C101 2.31875 100.849 2.68438 100.58 2.95397C100.311 3.22355 99.9458 3.375 99.5653 3.375C99.1848 3.375 98.8199 3.22355 98.5508 2.95397C98.2818 2.68438 98.1306 2.31875 98.1306 1.9375C98.1306 1.55625 98.2818 1.19062 98.5508 0.921034C98.8199 0.65145 99.1848 0.5 99.5653 0.5C99.9458 0.5 100.311 0.65145 100.58 0.921034C100.849 1.19062 101 1.55625 101 1.9375Z" fill="black"/>
</g>
<defs>
<clipPath id="clip0_3168_873">
<rect width="101" height="23" fill="white" transform="translate(0 0.5)"/>
</clipPath>
</defs>
</svg>
