<svg width="153" height="43" viewBox="0 0 153 43" fill="none" xmlns="http://www.w3.org/2000/svg">
<path d="M36.0453 29.4427V12.7292H39.0678L46.8365 24.5004V12.7292H49.859V29.4427H46.8365L39.0678 17.6955V29.4427H36.0453Z" fill="black"/>
<path d="M57.5028 29.7293C56.3221 29.7293 55.2753 29.4746 54.3623 28.9651C53.4493 28.4559 52.733 27.7395 52.2134 26.8163C51.6938 25.8932 51.4341 24.8266 51.4341 23.6169C51.4341 22.3912 51.686 21.3008 52.1899 20.3458C52.7092 19.3907 53.4177 18.6506 54.315 18.1253C55.228 17.5841 56.2985 17.3135 57.5263 17.3135C58.6757 17.3135 59.6909 17.5682 60.5726 18.0775C61.4542 18.5869 62.1389 19.2873 62.6269 20.1786C63.1308 21.0541 63.3826 22.0331 63.3826 23.1154C63.3826 23.2905 63.3748 23.4736 63.3589 23.6646C63.3589 23.8556 63.351 24.0545 63.3354 24.2616H54.4331C54.496 25.1847 54.8108 25.909 55.3777 26.4344C55.96 26.9595 56.6606 27.2223 57.4793 27.2223C58.0932 27.2223 58.6047 27.0868 59.0141 26.8163C59.4391 26.5297 59.7539 26.1636 59.9587 25.718H63.0284C62.8079 26.4661 62.438 27.1505 61.9184 27.7715C61.4148 28.3763 60.7852 28.8537 60.0295 29.2039C59.2896 29.5542 58.4474 29.7293 57.5028 29.7293ZM57.5263 19.7966C56.7865 19.7966 56.1332 20.0115 55.5666 20.4413C54.9997 20.8552 54.6376 21.4919 54.4804 22.3514H60.3129C60.2656 21.5714 59.9822 20.9507 59.4628 20.489C58.9433 20.0274 58.2978 19.7966 57.5263 19.7966Z" fill="black"/>
<path d="M62.8272 29.4428L67.0774 23.5215L62.8272 17.6001H66.0623L69.0375 21.8024L71.9891 17.6001H75.2477L70.9737 23.5215L75.2477 29.4428H71.9891L69.0375 25.2406L66.0623 29.4428H62.8272Z" fill="black"/>
<path d="M81.2114 29.4427C79.9833 29.4427 78.9995 29.1403 78.2595 28.5354C77.5197 27.9305 77.1498 26.8562 77.1498 25.3121V20.1548H75.1427V17.6H77.1498L77.504 14.4244H80.1722V17.6H83.3365V20.1548H80.1722V25.3361C80.1722 25.909 80.2903 26.3071 80.5265 26.5298C80.7783 26.7368 81.2033 26.8401 81.8015 26.8401H83.2657V29.4427H81.2114Z" fill="black"/>
<path d="M84.7508 29.4427V17.6H87.4193L87.679 19.1997C88.0567 18.6267 88.5528 18.173 89.1667 17.8388C89.7963 17.4886 90.5204 17.3135 91.3391 17.3135C93.1494 17.3135 94.4324 18.0218 95.1881 19.4385C95.6131 18.7859 96.1797 18.2685 96.8882 17.8865C97.6123 17.5045 98.3994 17.3135 99.2495 17.3135C100.777 17.3135 101.949 17.7751 102.768 18.6983C103.586 19.6215 103.996 20.9745 103.996 22.7573V29.4427H100.973V23.0438C100.973 22.0251 100.777 21.2451 100.383 20.7039C100.005 20.1627 99.4148 19.8921 98.6121 19.8921C97.7934 19.8921 97.1322 20.1946 96.6285 20.7994C96.1405 21.4043 95.8965 22.248 95.8965 23.3304V29.4427H92.8738V23.0438C92.8738 22.0251 92.6771 21.2451 92.2837 20.7039C91.89 20.1627 91.284 19.8921 90.4653 19.8921C89.6625 19.8921 89.0092 20.1946 88.5055 20.7994C88.0175 21.4043 87.7735 22.248 87.7735 23.3304V29.4427H84.7508Z" fill="black"/>
<path d="M111.305 29.7293C110.171 29.7293 109.148 29.4665 108.235 28.9413C107.338 28.416 106.622 27.6917 106.086 26.7685C105.567 25.8295 105.307 24.747 105.307 23.5214C105.307 22.2957 105.575 21.2213 106.11 20.298C106.645 19.3589 107.361 18.6267 108.259 18.1014C109.172 17.5761 110.195 17.3135 111.328 17.3135C112.446 17.3135 113.454 17.5761 114.351 18.1014C115.264 18.6267 115.98 19.3589 116.5 20.298C117.035 21.2213 117.303 22.2957 117.303 23.5214C117.303 24.747 117.035 25.8295 116.5 26.7685C115.98 27.6917 115.264 28.416 114.351 28.9413C113.438 29.4665 112.422 29.7293 111.305 29.7293ZM111.305 27.0789C112.092 27.0789 112.777 26.7844 113.359 26.1956C113.942 25.5907 114.233 24.6992 114.233 23.5214C114.233 22.3434 113.942 21.46 113.359 20.8711C112.777 20.2662 112.1 19.9638 111.328 19.9638C110.526 19.9638 109.833 20.2662 109.25 20.8711C108.684 21.46 108.4 22.3434 108.4 23.5214C108.4 24.6992 108.684 25.5907 109.25 26.1956C109.833 26.7844 110.518 27.0789 111.305 27.0789Z" fill="black"/>
<path d="M121.412 29.4428L117.114 17.6001H120.279L123.254 26.5539L126.229 17.6001H129.393L125.072 29.4428H121.412Z" fill="black"/>
<path d="M135.233 29.7293C134.053 29.7293 133.006 29.4746 132.093 28.9651C131.18 28.4559 130.464 27.7395 129.944 26.8163C129.425 25.8932 129.165 24.8266 129.165 23.6169C129.165 22.3912 129.417 21.3008 129.921 20.3458C130.44 19.3907 131.148 18.6506 132.046 18.1253C132.959 17.5841 134.029 17.3135 135.257 17.3135C136.406 17.3135 137.422 17.5682 138.303 18.0775C139.185 18.5869 139.87 19.2873 140.358 20.1786C140.861 21.0541 141.113 22.0331 141.113 23.1154C141.113 23.2905 141.105 23.4736 141.09 23.6646C141.09 23.8556 141.082 24.0545 141.066 24.2616H132.164C132.227 25.1847 132.542 25.909 133.108 26.4344C133.691 26.9595 134.391 27.2223 135.21 27.2223C135.824 27.2223 136.336 27.0868 136.745 26.8163C137.17 26.5297 137.485 26.1636 137.689 25.718H140.759C140.539 26.4661 140.169 27.1505 139.649 27.7715C139.145 28.3763 138.516 28.8537 137.76 29.2039C137.02 29.5542 136.178 29.7293 135.233 29.7293ZM135.257 19.7966C134.517 19.7966 133.864 20.0115 133.297 20.4413C132.731 20.8552 132.369 21.4919 132.211 22.3514H138.044C137.996 21.5714 137.713 20.9507 137.193 20.489C136.674 20.0274 136.028 19.7966 135.257 19.7966Z" fill="black"/>
<path d="M21.1412 12.4044V19.9599C21.1412 20.8223 20.4498 21.5214 19.5969 21.5214H12.1246V18.3985H15.8646L11.935 14.4251L14.1189 12.2169L18.0527 16.1945V12.4044H21.1412Z" fill="black"/>
<path d="M30.2634 21.6284H22.791C21.9381 21.6284 21.2467 22.3275 21.2467 23.1899V30.7455H24.3353V26.9634L28.2651 30.9369L30.4489 28.7288L26.5153 24.7514H30.2634V21.6284Z" fill="black"/>
</svg>
