<svg width="35" height="36" viewBox="0 0 35 36" fill="none" xmlns="http://www.w3.org/2000/svg">
<path d="M7.00822 12H30.2389L31.0722 8.66667H10.3416V5.33333H33.2069C34.1274 5.33333 34.8736 6.07953 34.8736 7C34.8736 7.13627 34.8569 7.27203 34.8237 7.40423L30.6571 24.0708C30.4717 24.8128 29.8051 25.3333 29.0402 25.3333H5.34155C4.42109 25.3333 3.67489 24.5872 3.67489 23.6667V3.66667H0.341553V0.333333H5.34155C6.26204 0.333333 7.00822 1.07953 7.00822 2V12ZM7.00822 35.3333C5.16727 35.3333 3.67489 33.841 3.67489 32C3.67489 30.159 5.16727 28.6667 7.00822 28.6667C8.84917 28.6667 10.3416 30.159 10.3416 32C10.3416 33.841 8.84917 35.3333 7.00822 35.3333ZM27.0082 35.3333C25.1672 35.3333 23.6749 33.841 23.6749 32C23.6749 30.159 25.1672 28.6667 27.0082 28.6667C28.8492 28.6667 30.3416 30.159 30.3416 32C30.3416 33.841 28.8492 35.3333 27.0082 35.3333Z" fill="black"/>
</svg>
