<svg width="40" height="40" viewBox="0 0 40 40" fill="none" xmlns="http://www.w3.org/2000/svg">
<path d="M10.0082 15H33.2389L34.0722 11.6667H13.3416V8.33333H36.2069C37.1274 8.33333 37.8736 9.07953 37.8736 10C37.8736 10.1363 37.8569 10.272 37.8237 10.4042L33.6571 27.0708C33.4717 27.8128 32.8051 28.3333 32.0402 28.3333H8.34155C7.42109 28.3333 6.67489 27.5872 6.67489 26.6667V6.66667H3.34155V3.33333H8.34155C9.26204 3.33333 10.0082 4.07953 10.0082 5V15ZM10.0082 38.3333C8.16727 38.3333 6.67489 36.841 6.67489 35C6.67489 33.159 8.16727 31.6667 10.0082 31.6667C11.8492 31.6667 13.3416 33.159 13.3416 35C13.3416 36.841 11.8492 38.3333 10.0082 38.3333ZM30.0082 38.3333C28.1672 38.3333 26.6749 36.841 26.6749 35C26.6749 33.159 28.1672 31.6667 30.0082 31.6667C31.8492 31.6667 33.3416 33.159 33.3416 35C33.3416 36.841 31.8492 38.3333 30.0082 38.3333Z" fill="black"/>
</svg>
