<svg width="40" height="40" viewBox="0 0 40 40" fill="none" xmlns="http://www.w3.org/2000/svg">
<path d="M21.6927 24.8177H3.33334V25.7943C3.33334 27.4123 4.645 28.724 6.26303 28.724H21.6927V24.8177Z" fill="black"/>
<path d="M21.6927 30.6771H16.7448V32.7604H14.8445C14.4242 32.7604 14.0509 33.0294 13.918 33.4282L13.267 35.3813C13.0562 36.0137 13.5269 36.6667 14.1934 36.6667H22.2182C21.8847 36.0916 21.6927 35.4248 21.6927 34.7135V30.6771Z" fill="black"/>
<path d="M33.737 3.33333H6.26303C5.81075 3.33333 5.3825 3.436 5.00008 3.61901L10.4948 9.11374V8.21615C10.4948 7.67682 10.932 7.23958 11.4714 7.23958C12.0107 7.23958 12.4479 7.67682 12.4479 8.21615V11.4714C12.4479 12.0107 12.0107 12.4479 11.4714 12.4479H8.21616C7.67683 12.4479 7.23959 12.0107 7.23959 11.4714C7.23959 10.932 7.67683 10.4948 8.21616 10.4948H9.11375L3.61902 5C3.43601 5.38249 3.33334 5.81074 3.33334 6.26302V22.8646H21.6927V17.7865C21.6927 15.6326 23.4451 13.8802 25.599 13.8802H34.7136C35.4248 13.8802 36.0916 14.0722 36.6667 14.4057V6.26302C36.6667 4.64499 35.355 3.33333 33.737 3.33333Z" fill="black"/>
<path d="M34.7136 15.8333H25.599C25.424 15.8333 25.2547 15.8566 25.0934 15.8998L29.8307 20.6372V19.7396C29.8307 19.2003 30.268 18.763 30.8073 18.763C31.3466 18.763 31.7839 19.2003 31.7839 19.7396V22.9948C31.7839 23.5341 31.3466 23.9714 30.8073 23.9714H27.5521C27.0128 23.9714 26.5755 23.5341 26.5755 22.9948C26.5755 22.4555 27.0128 22.0182 27.5521 22.0182H28.4497L23.7123 17.2808C23.6692 17.4421 23.6458 17.6115 23.6458 17.7865V34.7135C23.6458 35.7923 24.5203 36.6667 25.599 36.6667H34.7136C35.7923 36.6667 36.6667 35.7923 36.6667 34.7135V17.7865C36.6667 16.7077 35.7923 15.8333 34.7136 15.8333Z" fill="black"/>
</svg>
