<svg width="116" height="53" viewBox="0 0 116 53" fill="none" xmlns="http://www.w3.org/2000/svg">
<path d="M65.4967 36.7579C65.4967 37.0336 65.7249 37.2531 65.9982 37.2401L70.048 37.0449C70.3032 37.0325 70.5038 36.8202 70.5038 36.5624V23.6531C70.5038 23.3788 70.2776 23.1596 70.006 23.1706L65.9562 23.334C65.6993 23.3443 65.4967 23.5573 65.4967 23.8165V36.7579Z" fill="black"/>
<path d="M66.1261 20.7549C66.6219 21.2551 67.2418 21.5053 67.9859 21.5053C68.7679 21.5053 69.3973 21.2551 69.8743 20.7549C70.3704 20.2353 70.6184 19.5907 70.6184 18.8211C70.6184 18.0706 70.3704 17.4357 69.8743 16.9161C69.3973 16.3966 68.7679 16.1368 67.9859 16.1368C67.2418 16.1368 66.6219 16.3966 66.1261 16.9161C65.6301 17.4357 65.382 18.0706 65.382 18.8211C65.382 19.5907 65.6301 20.2353 66.1261 20.7549Z" fill="black"/>
<path fill-rule="evenodd" clip-rule="evenodd" d="M53.448 28.9807V35.9973C53.448 36.2299 53.2839 36.4292 53.0574 36.4722L48.893 37.2572C48.5985 37.313 48.3263 37.0848 48.3263 36.7827V17.2835C48.3263 17.0169 48.5409 16.8007 48.8053 16.8007H56.9676C58.3408 16.8007 59.5428 17.0604 60.5728 17.5799C61.6219 18.0995 62.4421 18.8114 63.0334 19.7158C63.6246 20.6201 63.9204 21.6784 63.9204 22.8907C63.9204 24.1029 63.6151 25.1708 63.0047 26.0944C62.4135 26.9988 61.5837 27.7107 60.5155 28.2302C60.0535 28.4467 59.5575 28.6163 59.0273 28.7391L64.4592 36.1969C64.7236 36.56 64.3947 37.0583 63.9607 36.9523L59.4708 35.8541C59.3688 35.829 59.278 35.7712 59.2119 35.6889L53.8144 28.9807H53.448ZM53.448 25.2863H56.2522C57.0914 25.2863 57.7305 25.0842 58.1692 24.6801C58.6271 24.2568 58.856 23.6892 58.856 22.9773C58.856 22.2845 58.6271 21.7265 58.1692 21.3032C57.7305 20.8607 57.0914 20.6394 56.2522 20.6394H53.448V25.2863Z" fill="black"/>
<path d="M77.2963 37.6682C76.4379 37.6682 75.589 37.5529 74.7497 37.322C73.9295 37.0911 73.1568 36.7834 72.4321 36.3983C71.8777 36.081 71.3881 35.7279 70.963 35.3393C70.7713 35.1641 70.7737 34.8647 70.9548 34.6778L73.0022 32.5691C73.1912 32.3744 73.501 32.3781 73.7071 32.5543C74.0827 32.8754 74.5065 33.1369 74.9787 33.339C75.6272 33.6084 76.3137 33.743 77.0387 33.743C77.4583 33.743 77.7732 33.6853 77.9831 33.5699C78.212 33.4544 78.3263 33.2909 78.3263 33.0792C78.3263 32.7714 78.1642 32.5405 77.8398 32.3865C77.5347 32.2133 77.1247 32.069 76.6095 31.9536C76.1134 31.8189 75.589 31.665 75.036 31.4918C74.4826 31.2994 73.9486 31.0492 73.4335 30.7414C72.9183 30.4335 72.4986 30.0005 72.1745 29.4425C71.8692 28.8845 71.7167 28.1726 71.7167 27.3067C71.7167 26.4023 71.9551 25.6134 72.4321 24.94C72.9278 24.2473 73.6146 23.7085 74.4921 23.3237C75.3696 22.9196 76.3997 22.7175 77.5822 22.7175C78.7841 22.7175 79.9284 22.9292 81.0158 23.3525C81.9407 23.6962 82.8694 24.3619 83.5374 25.0623C83.724 25.2583 83.6875 25.5702 83.4736 25.736L81.1055 27.5736C80.9063 27.7281 80.6261 27.6968 80.4395 27.5272C80.1144 27.232 79.807 27.0783 79.3849 26.9315C78.8319 26.7198 78.3263 26.614 77.8684 26.614C77.4297 26.614 77.1151 26.6813 76.9244 26.816C76.7337 26.9315 76.6381 27.095 76.6381 27.3067C76.6381 27.5568 76.7906 27.7589 77.096 27.9128C77.4201 28.0667 77.8302 28.211 78.3263 28.3458C78.8415 28.4612 79.3658 28.6151 79.9001 28.8075C80.4532 29 80.9776 29.2694 81.4736 29.6157C81.9888 29.9428 82.3989 30.3854 82.7039 30.9434C83.0284 31.5014 83.1904 32.223 83.1904 33.1081C83.1904 34.5126 82.6565 35.6287 81.5883 36.4561C80.52 37.2642 79.0891 37.6682 77.2963 37.6682Z" fill="black"/>
<path fill-rule="evenodd" clip-rule="evenodd" d="M86.9301 36.6581C88.132 37.2738 89.5148 37.5818 91.0791 37.5818C92.3189 37.5818 93.4254 37.3798 94.3981 36.9757C95.2469 36.6299 95.9839 36.1432 96.6089 35.5158C96.788 35.3365 96.7774 35.046 96.599 34.8661L94.6731 32.9236C94.4776 32.7265 94.1596 32.7393 93.9549 32.9266C93.6274 33.2262 93.2695 33.4599 92.8815 33.6276C92.3667 33.8585 91.7659 33.9739 91.0791 33.9739C90.3541 33.9739 89.7437 33.8296 89.248 33.541C88.7519 33.2523 88.3705 32.829 88.1034 32.271C88.0379 32.1297 87.9805 31.9815 87.9311 31.8263L97.3738 31.7821C97.5928 31.7811 97.7849 31.6308 97.8279 31.4144C97.875 31.1781 97.9047 30.9634 97.9176 30.7701C97.9555 30.4623 97.9746 30.1641 97.9746 29.8754C97.9746 28.5093 97.6601 27.297 97.0306 26.2387C96.4202 25.1612 95.5618 24.3242 94.4554 23.7277C93.3681 23.112 92.1187 22.8041 90.7072 22.8041C89.2572 22.8041 87.9509 23.1312 86.7871 23.7854C85.6428 24.4204 84.7366 25.2959 84.0689 26.4119C83.4013 27.5087 83.0676 28.769 83.0676 30.1929C83.0676 31.636 83.4108 32.9156 84.0976 34.0316C84.7844 35.1476 85.7284 36.0231 86.9301 36.6581ZM87.9205 28.5845C87.9652 28.4408 88.0164 28.3035 88.0747 28.1725C88.3227 27.6145 88.6755 27.1816 89.1334 26.8737C89.5912 26.5658 90.1347 26.4119 90.7642 26.4119C91.3746 26.4119 91.8802 26.5466 92.2807 26.816C92.6813 27.0854 92.9866 27.4798 93.1964 27.9993C93.2654 28.1636 93.324 28.3435 93.3721 28.539L87.9205 28.5845Z" fill="black"/>
<path d="M92.0706 20.7996V17.0744H93.0095V20.7996H92.0706ZM90.9321 17.8629V17.048H94.1477V17.8629H90.9321ZM94.3125 20.7996V17.048H94.9893L96.4161 19.2228H96.0961L97.5178 17.048H98.1944V20.7996H97.266V18.6142L97.4127 18.6566L96.5577 19.953H95.9491L95.0995 18.6566L95.2463 18.6142V20.7996H94.3125Z" fill="black"/>
<path d="M23.8742 15.0792C23.8742 14.7927 24.0856 14.5512 24.3674 14.5156L27.7454 14.0897C28.0814 14.0473 28.3782 14.3116 28.3782 14.6532V25.8608C28.3782 26.2024 28.0814 26.4667 27.7454 26.4244L24.3674 25.9984C24.0856 25.9629 23.8742 25.7213 23.8742 25.4349V15.0792Z" fill="black"/>
<path d="M17.1181 16.499C17.1181 16.2125 17.3295 15.971 17.6113 15.9354L20.9893 15.5095C21.3254 15.4671 21.6222 15.7314 21.6222 16.073V25.0089C21.6222 25.3505 21.3254 25.6148 20.9893 25.5725L17.6113 25.1465C17.3295 25.111 17.1181 24.8694 17.1181 24.583V16.499Z" fill="black"/>
<path d="M34.7079 15.0382C34.9583 15.1014 35.1344 15.3286 35.1344 15.5892V20.3236C35.1344 20.61 34.9228 20.8516 34.641 20.8871L31.2631 21.3131C30.927 21.3555 30.6302 21.0911 30.6302 20.7495V14.7373C30.6302 14.3678 30.9745 14.0967 31.3298 14.1863L34.7079 15.0382Z" fill="black"/>
<path d="M41.3274 17.0089C41.3274 16.7483 41.1513 16.5212 40.9009 16.458L37.5229 15.6061C37.1674 15.5165 36.8232 15.7876 36.8232 16.1571V20.4656C36.8232 20.8072 37.12 21.0715 37.4561 21.0291L40.8341 20.6031C41.1159 20.5676 41.3274 20.326 41.3274 20.0396V17.0089Z" fill="black"/>
<path d="M41.3274 22.8126L30.3487 23.0966C30.5076 25.1796 32.2295 26.7881 34.3005 26.7881H36.8232V29.205L17.1181 27.356V39.1959L41.3274 37.492V22.8126Z" fill="black"/>
</svg>
