<svg width="60" height="60" viewBox="0 0 60 60" fill="none" xmlns="http://www.w3.org/2000/svg">
<path d="M47.2181 11.145C44.7562 10.9107 42.3375 10.3557 40.0312 9.49316C37.2469 8.45441 34.6537 6.9844 32.3212 5.1244C30.9544 4.03503 29.0456 4.03503 27.6787 5.1244C25.3462 6.98253 22.7531 8.45253 19.9687 9.49316C17.6625 10.3557 15.2437 10.9107 12.7819 11.145C10.8394 11.3307 9.375 12.9357 9.375 14.8763V33.4125C9.375 41.2744 13.7437 48.3432 20.7769 51.8607L28.3237 55.6332C28.8487 55.8957 29.4244 56.025 30 56.025C30.5756 56.025 31.1512 55.8938 31.6781 55.6332L39.225 51.8607C46.2562 48.3432 50.6269 41.2744 50.6269 33.4125V14.8763C50.6269 12.9338 49.1606 11.3307 47.2181 11.145ZM38.8369 26.5425L29.4619 36.0863C29.1094 36.4444 28.6275 36.6469 28.125 36.6469H28.1194C27.6131 36.6469 27.1312 36.4407 26.7806 36.0788L21.1556 30.285C20.4337 29.5425 20.4525 28.3557 21.195 27.6338C21.9375 26.9119 23.1262 26.9288 23.8462 27.6732L28.1344 32.0888L36.1631 23.9157C36.8887 23.175 38.0737 23.1657 38.8144 23.8913C39.5531 24.6169 39.5644 25.8038 38.8387 26.5425H38.8369Z" fill="black"/>
</svg>
