<svg width="40" height="40" viewBox="0 0 40 40" fill="none" xmlns="http://www.w3.org/2000/svg">
<g clip-path="url(#clip0_165_154)">
<path d="M3.51562 14.1394H1.17188C0.524141 14.1394 0 14.6635 0 15.3113C0 15.959 0.524141 16.4832 1.17188 16.4832H3.51562C4.16336 16.4832 4.6875 15.959 4.6875 15.3113C4.6875 14.6635 4.16336 14.1394 3.51562 14.1394Z" fill="black"/>
<path d="M4.0794 8.28012L2.42229 6.62309C1.96455 6.16535 1.22291 6.16535 0.765176 6.62309C0.307441 7.08082 0.307441 7.82246 0.765176 8.28019L2.42229 9.93722C2.8801 10.395 3.62159 10.395 4.0794 9.93722C4.53713 9.47949 4.53713 8.73785 4.0794 8.28012Z" fill="black"/>
<path d="M4.0794 20.6855C3.62166 20.2278 2.88002 20.2277 2.42229 20.6855L0.765176 22.3426C0.307441 22.8003 0.307441 23.542 0.765176 23.9997C1.22299 24.4575 1.96447 24.4575 2.42229 23.9997L4.0794 22.3426C4.53713 21.8849 4.53713 21.1432 4.0794 20.6855Z" fill="black"/>
<path d="M38.8281 14.1394H36.4844C35.8366 14.1394 35.3125 14.6635 35.3125 15.3113C35.3125 15.959 35.8366 16.4832 36.4844 16.4832H38.8281C39.4759 16.4832 40 15.959 40 15.3113C40 14.6635 39.4759 14.1394 38.8281 14.1394Z" fill="black"/>
<path d="M39.2356 6.62296C38.7779 6.16523 38.0363 6.16523 37.5785 6.62296L35.9214 8.28007C35.4637 8.73781 35.4637 9.47945 35.9214 9.93718C36.3792 10.395 37.1207 10.395 37.5785 9.93718L39.2356 8.28007C39.6934 7.82234 39.6934 7.0807 39.2356 6.62296Z" fill="black"/>
<path d="M39.2356 22.3426L37.5785 20.6856C37.1208 20.2279 36.3792 20.2279 35.9214 20.6856C35.4637 21.1433 35.4637 21.885 35.9214 22.3427L37.5785 23.9997C38.0364 24.4575 38.7778 24.4575 39.2356 23.9997C39.6934 23.542 39.6934 22.8004 39.2356 22.3426Z" fill="black"/>
<path d="M28.8631 3.14364C25.558 0.456611 21.2219 -0.57792 16.9795 0.314658C11.6901 1.41903 7.38249 5.79099 6.26101 11.0782C5.30773 15.5769 6.48413 20.0927 9.4871 23.4687C10.7012 24.8349 11.4418 26.4838 11.6847 28.202H15.3121V17.6551C15.3121 17.2013 18.7484 10.5056 18.9513 10.0997C19.3496 9.30552 20.6496 9.30552 21.0479 10.0997C21.2605 10.5249 24.6871 17.224 24.6871 17.6551V28.202H28.3186C28.5698 26.492 29.3321 24.8169 30.5808 23.3921C32.8262 20.832 34.0621 17.5452 34.0621 14.1394C34.0621 9.88568 32.167 5.82841 28.8631 3.14364Z" fill="black"/>
<path d="M20 19.8958C19.2077 19.8958 18.4184 19.7578 17.6562 19.5057V28.202H22.3438V19.5057C21.5816 19.7578 20.7923 19.8958 20 19.8958Z" fill="black"/>
<path d="M11.7969 30.5458V31.7177C11.7969 33.6562 13.3739 35.2333 15.3125 35.2333H24.6875C26.6261 35.2333 28.2031 33.6562 28.2031 31.7177V30.5458H11.7969Z" fill="black"/>
<path d="M20.0001 13.2445L18.0635 17.1178C19.315 17.6305 20.6852 17.6305 21.9368 17.1178L20.0001 13.2445Z" fill="black"/>
<path d="M14.3564 37.577C14.8418 38.9381 16.1304 39.9989 17.6562 39.9989H22.3437C23.8695 39.9989 25.1581 38.9381 25.6435 37.577H14.3564Z" fill="black"/>
</g>
<defs>
<clipPath id="clip0_165_154">
<rect width="40" height="40" fill="white"/>
</clipPath>
</defs>
</svg>
