<svg width="40" height="40" viewBox="0 0 40 40" fill="none" xmlns="http://www.w3.org/2000/svg">
<path d="M28.7814 28.2353H24.5221V16.2251C24.5221 15.4545 23.8973 14.8297 23.1267 14.8297H16.8728C16.1021 14.8297 15.4774 15.4545 15.4774 16.2251V28.2353H11.218C9.98456 28.2353 9.35847 29.7254 10.2207 30.6066L19.0023 39.5807C19.5488 40.1391 20.4492 40.1402 20.9968 39.5807L29.7785 30.6066C30.6413 29.725 30.0142 28.2353 28.7814 28.2353Z" fill="black"/>
<path d="M31.3622 5.57109L26.1998 0.408672C25.938 0.146953 25.5832 0 25.2131 0H9.62391C8.85328 0 8.22852 0.624766 8.22852 1.39539V22.147C8.22852 22.9177 8.85328 23.5424 9.62391 23.5424H12.9466C13.2035 23.5424 13.4118 23.3342 13.4118 23.0773V13.8996C13.4118 13.3859 13.8283 12.9694 14.342 12.9694H25.6575C26.1712 12.9694 26.5877 13.3859 26.5877 13.8996V23.0773C26.5877 23.3342 26.796 23.5423 27.0528 23.5423H30.3755C31.1462 23.5423 31.7709 22.9176 31.7709 22.147V6.55773C31.7709 6.18766 31.6238 5.83273 31.3622 5.57109ZM23.3447 7.35984H16.6547C16.1409 7.35984 15.7245 6.94336 15.7245 6.42961C15.7245 5.91586 16.1409 5.49937 16.6547 5.49937H23.3447C23.8584 5.49937 24.2749 5.91586 24.2749 6.42961C24.2749 6.94336 23.8584 7.35984 23.3447 7.35984Z" fill="black"/>
</svg>
