<svg width="40" height="40" viewBox="0 0 40 40" fill="none" xmlns="http://www.w3.org/2000/svg">
<path d="M18.3337 30H13.2353C12.7402 27.879 10.5072 26.1429 9.59024 24.9987C7.76108 22.7162 6.66699 19.8192 6.66699 16.6667C6.66699 9.30291 12.6365 3.33337 20.0003 3.33337C27.3642 3.33337 33.3337 9.30291 33.3337 16.6667C33.3337 19.8209 32.2383 22.7192 30.4075 25.0024C29.491 26.145 27.26 27.8794 26.7653 30H21.667V21.6667H18.3337V30ZM26.667 33.3334V35C26.667 36.841 25.1747 38.3334 23.3337 38.3334H16.667C14.826 38.3334 13.3337 36.841 13.3337 35V33.3334H26.667Z" fill="black"/>
</svg>
