<svg width="28" height="36" viewBox="0 0 28 36" fill="none" xmlns="http://www.w3.org/2000/svg">
<path d="M12.3337 27H7.23534C6.74018 24.879 4.50719 23.1429 3.59024 21.9987C1.76108 19.7162 0.666992 16.8192 0.666992 13.6667C0.666992 6.30291 6.63653 0.333374 14.0003 0.333374C21.3642 0.333374 27.3337 6.30291 27.3337 13.6667C27.3337 16.8209 26.2383 19.7192 24.4075 22.0024C23.491 23.145 21.26 24.8794 20.7653 27H15.667V18.6667H12.3337V27ZM20.667 30.3334V32C20.667 33.841 19.1747 35.3334 17.3337 35.3334H10.667C8.82604 35.3334 7.33366 33.841 7.33366 32V30.3334H20.667Z" fill="black"/>
</svg>
