<svg width="34" height="30" viewBox="0 0 34 30" fill="none" xmlns="http://www.w3.org/2000/svg">
<path d="M1.16634 6.66667C1.16634 10.3486 4.15111 13.3333 7.83301 13.3333C11.5149 13.3333 14.4997 10.3486 14.4997 6.66667C14.4997 2.98477 11.5149 0 7.83301 0C4.15111 0 1.16634 2.98477 1.16634 6.66667ZM0.333008 30V22.5C0.333008 18.3578 3.69087 15 7.83301 15C11.9751 15 15.333 18.3578 15.333 22.5V30H0.333008ZM26.1663 13.3333C22.4845 13.3333 19.4997 10.3486 19.4997 6.66667C19.4997 2.98477 22.4845 0 26.1663 0C29.8482 0 32.833 2.98477 32.833 6.66667C32.833 10.3486 29.8482 13.3333 26.1663 13.3333ZM18.6663 30V22.5C18.6663 18.3578 22.0242 15 26.1663 15C30.3085 15 33.6663 18.3578 33.6663 22.5V30H18.6663Z" fill="black"/>
</svg>
