<svg width="40" height="40" viewBox="0 0 40 40" fill="none" xmlns="http://www.w3.org/2000/svg">
<g clip-path="url(#clip0_165_203)">
<path d="M38.8281 37.6563H37.6464V10.5861C37.6464 9.93887 37.1217 9.41418 36.4745 9.41418H31.7675C31.1203 9.41418 30.5956 9.93887 30.5956 10.5861V37.6563H28.2324V15.2931C28.2324 14.6459 27.7077 14.1212 27.0605 14.1212H22.3535C21.7063 14.1212 21.1816 14.6459 21.1816 15.2931V37.6563H18.8183V20.0001C18.8183 19.3529 18.2936 18.8282 17.6465 18.8282H12.9394C12.2922 18.8282 11.7676 19.3529 11.7676 20.0001V37.6563H9.40428V24.7071C9.40428 24.0599 8.87959 23.5353 8.23241 23.5353H3.52538C2.8782 23.5353 2.35351 24.0599 2.35351 24.7071V37.6563H1.17187C0.524686 37.6563 0 38.181 0 38.8282C0 39.4754 0.524686 40.0001 1.17187 40.0001H38.8281C39.4752 40.0001 39.9999 39.4754 39.9999 38.8282C39.9999 38.181 39.4752 37.6563 38.8281 37.6563Z" fill="black"/>
<path d="M1.17054 16.4652C1.20905 16.4652 1.24804 16.4633 1.28718 16.4594C7.27397 15.8677 12.8856 14.7455 17.9661 13.1238C22.0469 11.8212 25.798 10.1947 29.1151 8.28938C31.9359 6.66923 33.9619 5.1247 35.3027 3.96095V5.87915C35.3027 6.52634 35.8274 7.05103 36.4746 7.05103C37.1218 7.05103 37.6465 6.52634 37.6465 5.87915V1.17212C37.6465 0.524932 37.1218 0.000244141 36.4746 0.000244141H31.7676C31.1204 0.000244141 30.5957 0.524932 30.5957 1.17212C30.5957 1.81931 31.1204 2.34399 31.7676 2.34399H33.5829C32.3198 3.4211 30.4246 4.84595 27.8134 6.33392C22.8269 9.17556 14.137 12.8343 1.05671 14.127C0.412645 14.1906 -0.0579015 14.7643 0.00577038 15.4084C0.065536 16.0134 0.575145 16.4652 1.17054 16.4652Z" fill="black"/>
</g>
<defs>
<clipPath id="clip0_165_203">
<rect width="40" height="40" fill="white"/>
</clipPath>
</defs>
</svg>
