<svg width="40" height="40" viewBox="0 0 40 40" fill="none" xmlns="http://www.w3.org/2000/svg">
<g clip-path="url(#clip0_165_228)">
<path fill-rule="evenodd" clip-rule="evenodd" d="M20.0004 7.67444C23.2859 7.67444 25.9539 10.3423 25.9539 13.6279C25.9539 15.4214 25.0961 17.7507 23.7511 19.3209C22.7111 20.5358 21.3883 21.2912 20.0004 21.2912C18.6125 21.2912 17.2897 20.5359 16.2497 19.3209C14.9046 17.7507 14.0469 15.4214 14.0469 13.6279C14.0469 10.3423 16.7148 7.67444 20.0004 7.67444Z" fill="black"/>
<path fill-rule="evenodd" clip-rule="evenodd" d="M32.0926 2.55811C34.6601 2.55811 36.7438 4.64183 36.7438 7.20927C36.7438 8.57113 36.0964 10.3423 35.075 11.5348C34.2508 12.4985 33.1922 13.0809 32.0926 13.0809C30.9931 13.0809 29.9345 12.4986 29.1103 11.5349C28.0889 10.3424 27.4414 8.5712 27.4414 7.20927C27.4415 4.64183 29.5252 2.55811 32.0926 2.55811Z" fill="black"/>
<path fill-rule="evenodd" clip-rule="evenodd" d="M7.90709 2.55811C10.4745 2.55811 12.5583 4.64183 12.5583 7.20927C12.5583 8.57113 11.9108 10.3423 10.8895 11.5348C10.0652 12.4985 9.00667 13.0809 7.90709 13.0809C6.80752 13.0809 5.74896 12.4986 4.92473 11.5349C3.9033 10.3424 3.25586 8.5712 3.25586 7.20927C3.25593 4.64183 5.33965 2.55811 7.90709 2.55811Z" fill="black"/>
<path fill-rule="evenodd" clip-rule="evenodd" d="M19.9999 22.2791C25.8046 22.2791 30.5115 26.986 30.5115 32.7907V34.7442C30.5115 36.2344 29.3041 37.4418 27.8139 37.4418H12.186C10.6957 37.4418 9.48828 36.2344 9.48828 34.7442V32.7907C9.48828 26.986 14.1953 22.2791 19.9999 22.2791Z" fill="black"/>
<path fill-rule="evenodd" clip-rule="evenodd" d="M9.78043 25.8139H2.32558C1.04186 25.8139 0 24.7721 0 23.4884V22.093C0 17.7265 3.54043 14.186 7.90698 14.186C9.58694 14.186 11.1442 14.7088 12.4242 15.6018C12.8149 17.332 13.6689 19.1684 14.8353 20.5301C15.0568 20.7887 15.2874 21.0288 15.5255 21.252C13.1814 22.1618 11.1814 23.7674 9.78043 25.8139Z" fill="black"/>
<path fill-rule="evenodd" clip-rule="evenodd" d="M27.576 15.6018C28.856 14.7088 30.4132 14.186 32.0932 14.186C36.4597 14.186 40.0002 17.7265 40.0002 22.093V23.4884C40.0002 24.7721 38.9583 25.8139 37.6746 25.8139H30.2197C28.8188 23.7674 26.8188 22.1618 24.4746 21.2521C24.7127 21.0288 24.9434 20.7889 25.1649 20.5302C26.3313 19.1684 27.1853 17.332 27.576 15.6018Z" fill="black"/>
</g>
<defs>
<clipPath id="clip0_165_228">
<rect width="40" height="40" fill="white"/>
</clipPath>
</defs>
</svg>
