<svg width="40" height="40" viewBox="0 0 40 40" fill="none" xmlns="http://www.w3.org/2000/svg">
<path d="M4.16634 11.6667C4.16634 15.3486 7.15111 18.3333 10.833 18.3333C14.5149 18.3333 17.4997 15.3486 17.4997 11.6667C17.4997 7.98477 14.5149 5 10.833 5C7.15111 5 4.16634 7.98477 4.16634 11.6667ZM3.33301 35V27.5C3.33301 23.3578 6.69087 20 10.833 20C14.9751 20 18.333 23.3578 18.333 27.5V35H3.33301ZM29.1663 18.3333C25.4845 18.3333 22.4997 15.3486 22.4997 11.6667C22.4997 7.98477 25.4845 5 29.1663 5C32.8482 5 35.833 7.98477 35.833 11.6667C35.833 15.3486 32.8482 18.3333 29.1663 18.3333ZM21.6663 35V27.5C21.6663 23.3578 25.0242 20 29.1663 20C33.3085 20 36.6663 23.3578 36.6663 27.5V35H21.6663Z" fill="black"/>
</svg>
