<svg width="34" height="30" viewBox="0 0 34 30" fill="none" xmlns="http://www.w3.org/2000/svg">
<path d="M31.9997 0H1.99967C1.07921 0 0.333008 0.7462 0.333008 1.66667V28.3333C0.333008 29.2538 1.07921 30 1.99967 30H31.9997C32.9202 30 33.6663 29.2538 33.6663 28.3333V1.66667C33.6663 0.7462 32.9202 0 31.9997 0ZM16.9997 21.6667C14.2382 21.6667 11.9997 19.4282 11.9997 16.6667H3.66634V3.33333H30.333V16.6667H21.9997C21.9997 19.4282 19.7612 21.6667 16.9997 21.6667ZM23.6663 10H18.6663V5H15.333V10H10.333L16.9997 17.5L23.6663 10Z" fill="black"/>
</svg>
