<svg width="40" height="40" viewBox="0 0 40 40" fill="none" xmlns="http://www.w3.org/2000/svg">
<path d="M34.9997 5H4.99967C4.07921 5 3.33301 5.7462 3.33301 6.66667V33.3333C3.33301 34.2538 4.07921 35 4.99967 35H34.9997C35.9202 35 36.6663 34.2538 36.6663 33.3333V6.66667C36.6663 5.7462 35.9202 5 34.9997 5ZM19.9997 26.6667C17.2382 26.6667 14.9997 24.4282 14.9997 21.6667H6.66634V8.33333H33.333V21.6667H24.9997C24.9997 24.4282 22.7612 26.6667 19.9997 26.6667ZM26.6663 15H21.6663V10H18.333V15H13.333L19.9997 22.5L26.6663 15Z" fill="black"/>
</svg>
