<svg width="60" height="60" viewBox="0 0 60 60" fill="none" xmlns="http://www.w3.org/2000/svg">
<g clip-path="url(#clip0_149_314)">
<path d="M41.4879 3.70581H6.78516C3.04336 3.70581 0 6.74917 0 10.491V40.9011C0 42.3414 1.62879 43.1532 2.77852 42.332L12.443 35.4367C13.2539 34.8589 14.2078 34.5531 15.2039 34.5531H36.4605C40.2023 34.5531 43.2457 31.5097 43.2457 27.7679V5.46362C43.2457 4.49331 42.4582 3.70581 41.4879 3.70581ZM32.9496 25H12.6398C11.6695 25 10.882 24.2136 10.882 23.2421C10.882 22.2718 11.6695 21.4843 12.6398 21.4843H32.9496C33.9199 21.4843 34.7074 22.2718 34.7074 23.2421C34.7074 24.2136 33.9199 25 32.9496 25ZM32.9496 16.7968H12.6398C11.6695 16.7968 10.882 16.0105 10.882 15.039C10.882 14.0687 11.6695 13.2812 12.6398 13.2812H32.9496C33.9199 13.2812 34.7074 14.0687 34.7074 15.039C34.7074 16.0105 33.9199 16.7968 32.9496 16.7968Z" fill="white"/>
<path d="M59.9996 24.1257V54.5347C59.9996 55.9652 58.379 56.7926 57.2211 55.9655L47.5566 49.0714C46.7457 48.4937 45.7918 48.1878 44.7957 48.1878H23.5391C19.7973 48.1878 16.7539 45.1433 16.7539 41.4015V38.0686H36.4602C42.1402 38.0686 46.7609 33.4479 46.7609 27.7679V17.3394H53.2145C56.9562 17.3394 59.9996 20.3839 59.9996 24.1257Z" fill="white"/>
</g>
<defs>
<clipPath id="clip0_149_314">
<rect width="60" height="60" fill="white"/>
</clipPath>
</defs>
</svg>
