<svg width="60" height="60" viewBox="0 0 60 60" fill="none" xmlns="http://www.w3.org/2000/svg">
<path fill-rule="evenodd" clip-rule="evenodd" d="M0 30C0 13.4314 13.4314 0 30 0C46.5685 0 60 13.4314 60 30C60 46.5685 46.5685 60 30 60C13.4314 60 0 46.5685 0 30ZM30 15C31.083 15 32.043 15.6974 32.3775 16.7274L34.6227 23.6373H41.8883C42.9713 23.6373 43.931 24.3347 44.2658 25.3647C44.6005 26.3947 44.2337 27.5232 43.3575 28.1597L37.4798 32.4303L39.725 39.3403C40.0595 40.3703 39.693 41.4987 38.8167 42.1352C37.9405 42.7717 36.754 42.7717 35.8778 42.1352L30 37.8647L24.1221 42.1352C23.2459 42.7717 22.0594 42.7717 21.1832 42.1352C20.307 41.4987 19.9403 40.3703 20.275 39.3403L22.5201 32.4303L16.6423 28.1597C15.766 27.5232 15.3994 26.3947 15.7341 25.3647C16.0688 24.3347 17.0287 23.6373 18.1117 23.6373H25.3773L27.6222 16.7274C27.957 15.6974 28.917 15 30 15Z" fill="#0F0F0F"/>
</svg>
