<svg width="60" height="60" viewBox="0 0 60 60" fill="none" xmlns="http://www.w3.org/2000/svg">
<g clip-path="url(#clip0_149_292)">
<path d="M14.7744 39.4272L28.2423 47.2835V30.4495L14.7744 22.6072V39.4272Z" fill="black"/>
<path d="M16.5195 19.5552L30.0002 27.4048L43.4809 19.5552L30.0002 11.6914L16.5195 19.5552Z" fill="black"/>
<path d="M45.2258 39.4272V22.6072L31.7578 30.4495V47.2835L45.2258 39.4272Z" fill="black"/>
<path d="M51.2135 8.78672C45.5471 3.12059 38.0135 0 30.0002 0C21.2218 0 13.0395 3.77918 7.38137 10.2852L7.09273 8.23148L3.61133 8.72086L4.7334 16.7046L12.7196 15.5823L12.2304 12.1008L10.2184 12.3836C15.2066 6.76992 22.3469 3.51563 30.0002 3.51563C44.6037 3.51563 56.4846 15.3964 56.4846 30C56.4846 32.0871 56.2413 34.1644 55.7615 36.1741L59.1811 36.9906C59.7246 34.7136 60.0002 32.3618 60.0002 30.0001C60.0002 21.9867 56.8797 14.4531 51.2135 8.78672Z" fill="black"/>
<path d="M47.635 43.7375L48.0634 47.227L50.3647 46.9444C45.3682 52.9784 38.0006 56.4843 30 56.4843C15.3964 56.4843 3.51562 44.6034 3.51562 29.9999C3.51562 27.6962 3.81141 25.4104 4.39465 23.2058L0.996094 22.3066C0.335156 24.8044 0 27.3928 0 29.9999C0 38.0132 3.12047 45.5468 8.78672 51.2132C14.4531 56.8793 21.9867 59.9999 30 59.9999C35.2427 59.9999 40.4034 58.627 44.9243 56.0297C47.9921 54.2672 50.7286 51.9676 52.9962 49.265L53.273 51.5193L56.7623 51.0908L55.7373 42.7429L47.635 43.7375Z" fill="black"/>
</g>
<defs>
<clipPath id="clip0_149_292">
<rect width="60" height="60" fill="white"/>
</clipPath>
</defs>
</svg>
