<svg width="56" height="51" viewBox="0 0 56 51" fill="none" xmlns="http://www.w3.org/2000/svg">
<path d="M3 20.4999H10.5V50.5H3C1.6193 50.5 0.5 49.3807 0.5 48V22.9999C0.5 21.6192 1.6193 20.4999 3 20.4999ZM16.2322 17.2677L32.2335 1.26652C32.6733 0.826648 33.3698 0.777173 33.8672 1.1504L35.9987 2.749C37.2105 3.6578 37.7565 5.20632 37.3828 6.67415L34.4995 17.9999H50.5C53.2615 17.9999 55.5 20.2385 55.5 22.9999V28.2607C55.5 28.914 55.372 29.5607 55.1235 30.1645L47.3875 48.9517C47.0017 49.8885 46.0887 50.5 45.0757 50.5H18C16.6193 50.5 15.5 49.3807 15.5 48V19.0355C15.5 18.3724 15.7634 17.7365 16.2322 17.2677Z" fill="black"/>
</svg>
