<svg width="60" height="60" viewBox="0 0 60 60" fill="none" xmlns="http://www.w3.org/2000/svg">
<path d="M32.5007 52.5H45.0007V57.5H15.0008V52.5H27.5007V49.8765C19.2672 49.059 12.2088 44.2468 8.29102 37.4055L12.633 34.9243C16.0802 40.944 22.5668 45 30.0007 45C41.0465 45 50.0007 36.0455 50.0007 24.9999C50.0007 17.5659 45.945 11.0793 39.9252 7.63205L42.4065 3.2901C49.931 7.59913 55.0007 15.7074 55.0007 24.9999C55.0007 37.9633 45.134 48.6223 32.5007 49.8765V52.5ZM30.0007 42.5C20.3358 42.5 12.5008 34.6648 12.5008 24.9999C12.5008 15.3349 20.3358 7.49988 30.0007 7.49988C39.6657 7.49988 47.5007 15.3349 47.5007 24.9999C47.5007 34.6648 39.6657 42.5 30.0007 42.5Z" fill="black"/>
</svg>
