<svg width="60" height="60" viewBox="0 0 60 60" fill="none" xmlns="http://www.w3.org/2000/svg">
<path d="M57.1875 31.875C57.184 39.0845 54.3185 45.9977 49.2206 51.0956C44.1227 56.1935 37.2095 59.059 30 59.0625C24.8531 59.0646 19.8114 57.605 15.4616 54.8536C11.1118 52.1022 7.63275 48.1722 5.42929 43.5208C3.22582 38.8694 2.38853 33.6879 3.01484 28.5792C3.64116 23.4706 5.70533 18.6448 8.96716 14.6634C11.5093 11.5398 14.7168 9.02316 18.3556 7.29726C21.9944 5.57137 25.9726 4.67975 30 4.6875C31.1285 4.6923 32.2556 4.76682 33.375 4.91062C32.5609 5.99268 31.9332 7.20308 31.5178 8.49187C31.0115 8.46 30.5072 8.4375 30 8.4375C26.7093 8.43198 23.4547 9.12327 20.4504 10.4659C17.4461 11.8085 14.76 13.772 12.569 16.2272C15.0712 18.0497 20.1825 22.5244 18.6862 27.7631C18.4767 28.3721 18.3953 29.0179 18.4473 29.6598C18.4992 30.3018 18.6834 30.926 18.9881 31.4934C20.2368 33.6666 23.2143 34.4456 23.2444 34.4531C23.4769 34.5281 27.3562 35.8594 28.2075 38.9409C28.7053 40.7428 28.0772 42.6806 26.3428 44.7019C24.6737 46.752 22.466 48.2961 19.9678 49.1606C18.539 49.7166 17.729 50.0363 17.2575 51.5363C22.1929 54.7436 28.1555 55.9736 33.9573 54.9812C39.759 53.9888 44.9738 50.8467 48.5625 46.1812C48.675 46.035 48.7715 45.8813 48.8803 45.7331C48.2156 41.8894 47.0147 41.4206 45.6478 40.8956C44.7738 40.6181 43.973 40.1485 43.304 39.5212C42.5087 38.6462 41.8193 37.6805 41.25 36.6441C39.9797 34.5497 38.5397 32.1741 35.25 30.5287L34.5647 30.1875C29.7122 27.7809 26.7834 26.3278 29.549 18.0506C29.9302 16.89 30.5181 15.8079 31.2843 14.8566C32.114 18.3769 34.4494 22.89 38.2706 28.3322C38.8182 29.1104 39.5449 29.7455 40.3894 30.1839C41.234 30.6223 42.1716 30.8511 43.1231 30.8511C44.0746 30.8511 45.0122 30.6223 45.8568 30.1839C46.7013 29.7455 47.428 29.1104 47.9756 28.3322C50.2004 25.2719 52.116 21.9983 53.6944 18.5597C55.984 22.624 57.1871 27.2101 57.1875 31.875ZM40.574 26.7188C37.7981 22.7634 33.75 16.2947 33.75 12.1875C33.75 9.7011 34.7377 7.31653 36.4958 5.55837C38.254 3.80022 40.6386 2.8125 43.125 2.8125C45.6114 2.8125 47.9959 3.80022 49.7541 5.55837C51.5123 7.31653 52.5 9.7011 52.5 12.1875C52.5 16.2947 48.4519 22.7634 45.6759 26.7188C45.3879 27.1277 45.0059 27.4614 44.5619 27.6917C44.118 27.9221 43.6251 28.0423 43.125 28.0423C42.6248 28.0423 42.132 27.9221 41.688 27.6917C41.2441 27.4614 40.862 27.1277 40.574 26.7188ZM43.125 16.875C44.0521 16.875 44.9584 16.6001 45.7292 16.085C46.5001 15.5699 47.1009 14.8379 47.4557 13.9813C47.8104 13.1248 47.9033 12.1823 47.7224 11.273C47.5415 10.3637 47.0951 9.5285 46.4395 8.87294C45.784 8.21738 44.9487 7.77094 44.0395 7.59007C43.1302 7.4092 42.1877 7.50203 41.3311 7.85681C40.4746 8.2116 39.7425 8.81241 39.2275 9.58326C38.7124 10.3541 38.4375 11.2604 38.4375 12.1875C38.4375 13.4307 38.9313 14.623 39.8104 15.5021C40.6895 16.3811 41.8818 16.875 43.125 16.875Z" fill="black"/>
</svg>
