<svg width="60" height="60" viewBox="0 0 60 60" fill="none" xmlns="http://www.w3.org/2000/svg">
<path d="M46.875 21.2484C46.7906 25.6406 44.9656 29.8195 41.8013 32.8666C38.637 35.9138 34.3922 37.5798 30 37.4984C25.6078 37.5797 21.363 35.9137 18.1987 32.8666C15.0344 29.8195 13.2094 25.6406 13.125 21.2484C13.2094 16.8563 15.0344 12.6774 18.1987 9.63029C21.363 6.58316 25.6078 4.91715 30 4.99845C34.3922 4.91712 38.637 6.58312 41.8013 9.63026C44.9656 12.6774 46.7906 16.8563 46.875 21.2484ZM39.4667 39.0112C36.535 40.4791 33.302 41.245 30.0233 41.2484C26.7446 41.2519 23.5101 40.4927 20.5752 39.031C20.3865 38.9379 20.177 38.8946 19.9668 38.9051C19.7566 38.9157 19.5526 38.9797 19.374 39.0912C19.1955 39.2026 19.0484 39.3579 18.9466 39.5421C18.8449 39.7264 18.7918 39.9335 18.7926 40.144L18.75 52.2485C18.75 54.4985 20.325 55.5985 22.275 54.6735L28.975 51.4985C29.6355 51.2486 30.3645 51.2486 31.025 51.4985L37.725 54.6735C39.675 55.5985 41.25 54.4985 41.25 52.2485V40.1282C41.2515 39.9172 41.1991 39.7094 41.0976 39.5245C40.9961 39.3396 40.8489 39.1838 40.6702 39.0718C40.4914 38.9598 40.287 38.8955 40.0763 38.8849C39.8657 38.8743 39.6558 38.9178 39.4667 39.0112Z" fill="black"/>
</svg>
