<svg width="60" height="60" viewBox="0 0 60 60" fill="none" xmlns="http://www.w3.org/2000/svg">
<path fill-rule="evenodd" clip-rule="evenodd" d="M56.38 28.545L52.92 51.045C52.4025 54.4 49.5175 56.875 46.125 56.875H17.915C16.8775 56.875 16.04 56.035 16.04 55V26.25C16.04 25.975 16.1 25.7025 16.2175 25.4525L26.2175 4.2025C26.5275 3.545 27.1875 3.125 27.915 3.125H30.415C32.2375 3.125 33.985 3.85 35.275 5.1375C36.565 6.4275 37.29 8.1775 37.29 10V20C37.29 20.345 37.57 20.625 37.915 20.625H49.585C51.5925 20.625 53.4975 21.5 54.805 23.0225C56.11 24.545 56.685 26.5625 56.38 28.545Z" fill="black"/>
<path fill-rule="evenodd" clip-rule="evenodd" d="M13.96 56.875H7.91504C6.75254 56.875 5.64004 56.415 4.82004 55.5925C4.00004 54.7725 3.54004 53.66 3.54004 52.5V28.75C3.54004 27.59 4.00004 26.4775 4.82004 25.6575C5.64004 24.835 6.75254 24.375 7.91504 24.375H13.96L13.955 24.3875C13.68 24.97 13.54 25.605 13.54 26.25V55C13.54 55.67 13.69 56.3075 13.96 56.875Z" fill="black"/>
</svg>
