<svg width="40" height="55" viewBox="0 0 40 55" fill="none" xmlns="http://www.w3.org/2000/svg">
<path d="M32.5 36.1135V53.2922C32.5 53.9825 31.9403 54.5425 31.25 54.5425C31.0235 54.5425 30.8012 54.4808 30.607 54.3643L20 48L9.39312 54.3643C8.80115 54.7192 8.03333 54.5273 7.67812 53.9355C7.56157 53.741 7.5 53.5187 7.5 53.2922V36.1135C2.92768 32.4483 0 26.816 0 20.5C0 9.4543 8.9543 0.5 20 0.5C31.0457 0.5 40 9.4543 40 20.5C40 26.816 37.0723 32.4483 32.5 36.1135ZM20 35.5C28.2843 35.5 35 28.7843 35 20.5C35 12.2157 28.2843 5.5 20 5.5C11.7157 5.5 5 12.2157 5 20.5C5 28.7843 11.7157 35.5 20 35.5ZM20 30.5C14.4771 30.5 10 26.0228 10 20.5C10 14.9771 14.4771 10.5 20 10.5C25.5228 10.5 30 14.9771 30 20.5C30 26.0228 25.5228 30.5 20 30.5Z" fill="black"/>
</svg>
