<svg width="60" height="60" viewBox="0 0 54 37" fill="none" xmlns="http://www.w3.org/2000/svg">
<path d="M50.8125 2.60625C50.0988 2.33242 49.318 2.28524 48.5765 2.47111C47.8351 2.65699 47.1689 3.06689 46.6688 3.645L38.3625 13.1494L30 2.0025C29.6381 1.55565 29.1809 1.1953 28.6618 0.947767C28.1428 0.700235 27.575 0.571777 27 0.571777C26.425 0.571777 25.8572 0.700235 25.3382 0.947767C24.8191 1.1953 24.3619 1.55565 24 2.0025L15.6375 13.1512L7.32188 3.645C6.81934 3.07081 6.1536 2.66358 5.41354 2.4777C4.67348 2.29181 3.89432 2.33611 3.1801 2.60468C2.46589 2.87325 1.85059 3.35331 1.41638 3.98077C0.982161 4.60822 0.749689 5.3532 0.75 6.11625V31.125C0.75 32.6168 1.34263 34.0476 2.39752 35.1025C3.45242 36.1574 4.88316 36.75 6.375 36.75H47.625C49.1168 36.75 50.5476 36.1574 51.6025 35.1025C52.6574 34.0476 53.25 32.6168 53.25 31.125V6.11625C53.254 5.35154 53.0221 4.60421 52.5859 3.97609C52.1497 3.34797 51.5304 2.86963 50.8125 2.60625Z" fill="black"/>
</svg>
