<svg width="60" height="60" viewBox="0 0 60 60" fill="none" xmlns="http://www.w3.org/2000/svg">
<path d="M29.5298 60H24.8423C22.516 60 20.6235 58.1075 20.6235 55.7812V26.7188C20.6235 24.3925 22.516 22.5 24.8423 22.5H29.5298C31.8561 22.5 33.7485 24.3925 33.7485 26.7188V55.7812C33.7485 58.1075 31.856 60 29.5298 60Z" fill="black"/>
<path d="M11.7173 60H7.02979C4.7035 60 2.81104 58.1075 2.81104 55.7812V36.0938C2.81104 33.7675 4.7035 31.875 7.02979 31.875H11.7173C14.0436 31.875 15.936 33.7675 15.936 36.0938V55.7812C15.936 58.1075 14.0435 60 11.7173 60Z" fill="black"/>
<path d="M47.3423 60H42.6548C40.3285 60 38.436 58.1075 38.436 55.7812V16.875H35.8602C34.656 16.875 33.5952 16.1953 33.092 15.1012C32.5888 14.0072 32.7631 12.7596 33.5468 11.8452C33.5557 11.8348 33.5649 11.8243 33.574 11.8141L43.6021 0.623672C43.9578 0.226758 44.4655 0 44.9985 0C45.5315 0 46.0391 0.226758 46.3949 0.623672L56.423 11.8141C56.4322 11.8243 56.4413 11.8348 56.4502 11.8452C57.2339 12.7595 57.4082 14.0072 56.905 15.1012C56.4018 16.1953 55.341 16.875 54.1368 16.875H51.561V55.7812C51.561 58.1075 49.6684 60 47.3423 60Z" fill="black"/>
</svg>
