<svg width="47" height="55" viewBox="0 0 47 55" fill="none" xmlns="http://www.w3.org/2000/svg">
<path d="M24.5007 49.5H37.0007V54.5H7.00079V49.5H19.5007V46.8765C11.2672 46.059 4.20877 41.2468 0.291016 34.4055L4.63297 31.9243C8.08019 37.944 14.5668 42 22.0007 42C33.0465 42 42.0007 33.0455 42.0007 21.9999C42.0007 14.5659 37.945 8.07928 31.9252 4.63205L34.4065 0.2901C41.931 4.59913 47.0007 12.7074 47.0007 21.9999C47.0007 34.9633 37.134 45.6223 24.5007 46.8765V49.5ZM22.0007 39.5C12.3358 39.5 4.50079 31.6648 4.50079 21.9999C4.50079 12.3349 12.3358 4.49988 22.0007 4.49988C31.6657 4.49988 39.5007 12.3349 39.5007 21.9999C39.5007 31.6648 31.6657 39.5 22.0007 39.5Z" fill="black"/>
</svg>
