<svg width="60" height="60" viewBox="0 0 60 60" fill="none" xmlns="http://www.w3.org/2000/svg">
<path d="M5 22.4999H12.5V52.5H5C3.6193 52.5 2.5 51.3807 2.5 50V24.9999C2.5 23.6192 3.6193 22.4999 5 22.4999ZM18.2322 19.2677L34.2335 3.26652C34.6733 2.82665 35.3698 2.77717 35.8672 3.1504L37.9987 4.749C39.2105 5.6578 39.7565 7.20632 39.3828 8.67415L36.4995 19.9999H52.5C55.2615 19.9999 57.5 22.2385 57.5 24.9999V30.2607C57.5 30.914 57.372 31.5607 57.1235 32.1645L49.3875 50.9517C49.0017 51.8885 48.0887 52.5 47.0757 52.5H20C18.6193 52.5 17.5 51.3807 17.5 50V21.0355C17.5 20.3724 17.7634 19.7365 18.2322 19.2677Z" fill="black"/>
</svg>
