<svg width="60" height="60" viewBox="0 0 60 60" fill="none" xmlns="http://www.w3.org/2000/svg">
<path d="M42.5 38.1135V55.2922C42.5 55.9825 41.9403 56.5425 41.25 56.5425C41.0235 56.5425 40.8012 56.4808 40.607 56.3643L30 50L19.3931 56.3643C18.8011 56.7192 18.0333 56.5273 17.6781 55.9355C17.5616 55.741 17.5 55.5187 17.5 55.2922V38.1135C12.9277 34.4483 10 28.816 10 22.5C10 11.4543 18.9543 2.5 30 2.5C41.0457 2.5 50 11.4543 50 22.5C50 28.816 47.0723 34.4483 42.5 38.1135ZM30 37.5C38.2843 37.5 45 30.7843 45 22.5C45 14.2157 38.2843 7.5 30 7.5C21.7157 7.5 15 14.2157 15 22.5C15 30.7843 21.7157 37.5 30 37.5ZM30 32.5C24.4771 32.5 20 28.0228 20 22.5C20 16.9771 24.4771 12.5 30 12.5C35.5228 12.5 40 16.9771 40 22.5C40 28.0228 35.5228 32.5 30 32.5Z" fill="black"/>
</svg>
