<svg width="127" height="53" viewBox="0 0 127 53" fill="none" xmlns="http://www.w3.org/2000/svg">
<path d="M57.2395 18.6007C57.5754 18.9586 58.0879 19.1376 58.7767 19.1376C59.4654 19.1376 59.9695 18.9586 60.2887 18.6007C60.6081 18.2257 60.7675 17.7654 60.7675 17.22C60.7675 16.6404 60.6081 16.1717 60.2887 15.8138C59.9695 15.4558 59.4654 15.2769 58.7767 15.2769C58.0879 15.2769 57.5754 15.4558 57.2395 15.8138C56.92 16.1717 56.7606 16.6404 56.7606 17.22C56.7606 17.7654 56.92 18.2257 57.2395 18.6007Z" fill="black"/>
<path d="M41.2411 20.7994L45.5254 34.6827H51.1453L54.8499 20.7994H51.4731L48.6854 31.768H48.0904L44.8451 20.7994H41.2411Z" fill="black"/>
<path d="M68.7361 35.1173C66.8545 35.1173 65.3759 34.7168 64.3007 33.9157C63.2424 33.0976 62.6879 31.9724 62.6374 30.5408H65.7875C65.8379 31.0181 66.0985 31.4527 66.5687 31.8447C67.0392 32.2368 67.7787 32.4326 68.7866 32.4326C69.6266 32.4326 70.2902 32.2794 70.7774 31.9724C71.2815 31.6656 71.5334 31.248 71.5334 30.7196C71.5334 30.2595 71.3404 29.893 70.954 29.6203C70.5844 29.3476 69.9458 29.1686 69.0385 29.0834L67.8288 28.9555C66.3 28.7851 65.124 28.3419 64.3007 27.626C63.4775 26.9101 63.0659 25.9556 63.0659 24.7624C63.0659 23.8079 63.3009 23.0068 63.7714 22.3591C64.2419 21.7114 64.8889 21.2256 65.7121 20.9017C66.5519 20.5608 67.5097 20.3904 68.5851 20.3904C70.2649 20.3904 71.6259 20.7654 72.6677 21.5154C73.7092 22.2653 74.2554 23.3647 74.3058 24.8136H71.1554C71.1218 24.3363 70.8867 23.9272 70.4499 23.5863C70.013 23.2454 69.3831 23.075 68.5599 23.075C67.8204 23.075 67.2494 23.2199 66.8461 23.5096C66.4429 23.7994 66.2412 24.1744 66.2412 24.6346C66.2412 25.0778 66.4009 25.4187 66.72 25.6573C67.056 25.8959 67.5937 26.0578 68.3329 26.1431L69.5426 26.2709C71.1554 26.4414 72.4155 26.8931 73.3228 27.626C74.247 28.3589 74.709 29.3476 74.709 30.5919C74.709 31.5124 74.4568 32.3135 73.953 32.9952C73.4657 33.6598 72.7767 34.1798 71.8865 34.5548C70.996 34.9297 69.9458 35.1173 68.7361 35.1173Z" fill="black"/>
<path d="M76.7458 18.6007C77.0821 18.9586 77.5943 19.1376 78.2833 19.1376C78.9721 19.1376 79.4762 18.9586 79.7953 18.6007C80.1145 18.2257 80.2742 17.7654 80.2742 17.22C80.2742 16.6404 80.1145 16.1717 79.7953 15.8138C79.4762 15.4558 78.9721 15.2769 78.2833 15.2769C77.5943 15.2769 77.0821 15.4558 76.7458 15.8138C76.4267 16.1717 76.2673 16.6404 76.2673 17.22C76.2673 17.7654 76.4267 18.2257 76.7458 18.6007Z" fill="black"/>
<path fill-rule="evenodd" clip-rule="evenodd" d="M89.8556 35.1686C88.646 35.1686 87.5792 34.9724 86.6551 34.5804C85.731 34.1884 84.9498 33.6599 84.3112 32.9952C83.6729 32.3136 83.1856 31.5463 82.8496 30.694C82.5305 29.8419 82.3708 28.9556 82.3708 28.0351V27.4982C82.3708 26.5437 82.5389 25.6403 82.8749 24.788C83.2276 23.9188 83.7233 23.1517 84.3616 22.487C85.017 21.8052 85.8067 21.2768 86.7308 20.9018C87.6546 20.5097 88.6964 20.3137 89.8556 20.3137C91.0149 20.3137 92.0567 20.5097 92.9805 20.9018C93.9046 21.2768 94.6858 21.8052 95.3244 22.487C95.9796 23.1517 96.4753 23.9188 96.8112 24.788C97.1472 25.6403 97.3153 26.5437 97.3153 27.4982V28.0351C97.3153 28.9556 97.1472 29.8419 96.8112 30.694C96.4921 31.5463 96.0132 32.3136 95.3749 32.9952C94.7363 33.6599 93.9551 34.1884 93.0309 34.5804C92.1071 34.9724 91.0485 35.1686 89.8556 35.1686ZM89.8556 32.1259C90.7125 32.1259 91.4349 31.9383 92.0231 31.5633C92.6109 31.1713 93.0562 30.6517 93.3588 30.0038C93.6611 29.3391 93.8122 28.5891 93.8122 27.7539C93.8122 26.9016 93.6527 26.1516 93.3336 25.5039C93.0309 24.8392 92.5773 24.3193 91.9726 23.9443C91.3845 23.5523 90.6789 23.3563 89.8556 23.3563C89.0324 23.3563 88.3184 23.5523 87.7135 23.9443C87.1256 24.3193 86.6719 24.8392 86.3525 25.5039C86.0333 26.1516 85.8739 26.9016 85.8739 27.7539C85.8739 28.5891 86.0249 29.3391 86.3276 30.0038C86.6467 30.6517 87.1004 31.1713 87.6882 31.5633C88.2764 31.9383 88.9988 32.1259 89.8556 32.1259Z" fill="black"/>
<path d="M102.197 23.2285C102.077 23.5339 101.976 23.8646 101.895 24.2207V20.7995H99.1225V34.6828H102.626V26.5267C102.626 25.6233 102.886 24.9074 103.407 24.379C103.945 23.8336 104.642 23.5608 105.499 23.5608C106.339 23.5608 106.994 23.825 107.464 24.3534C107.952 24.8818 108.195 25.5721 108.195 26.4244V34.6828H111.698V26.7312C111.698 24.6176 111.278 23.0324 110.438 21.9756C109.598 20.9018 108.363 20.3649 106.733 20.3649H106.582C105.49 20.3649 104.574 20.6035 103.835 21.0808C103.113 21.558 102.567 22.2739 102.197 23.2285Z" fill="black"/>
<path d="M57.4914 23.4585V34.6827H60.9945V20.7994H55.5762V23.4585H57.4914Z" fill="black"/>
<path d="M76.998 23.4585V34.6827H80.5009V20.7994H75.0825V23.4585H76.998Z" fill="black"/>
<path fill-rule="evenodd" clip-rule="evenodd" d="M26.0908 37.5359C32.1493 37.5359 37.0609 32.5529 37.0609 26.4064C37.0609 20.2597 32.1493 15.2769 26.0908 15.2769C20.0321 15.2769 15.1206 20.2597 15.1206 26.4064C15.1206 32.5529 20.0321 37.5359 26.0908 37.5359ZM34.1642 25.2515C33.1413 26.465 31.7005 27.2208 30.1041 27.2208C27.0008 27.2208 24.4852 24.3647 24.4852 20.8416C24.4852 19.9553 24.6444 19.1112 24.9321 18.3441C21.0435 18.9433 18.0637 22.3496 18.0637 26.462C18.0637 27.6619 18.3174 28.8017 18.7733 29.8291C19.2358 29.3926 19.8857 29.121 20.6056 29.121C22.0094 29.121 23.1475 30.154 23.1475 31.4284C23.1475 32.284 22.6343 33.0309 21.8722 33.4293C23.1149 34.2179 24.5838 34.6735 26.1576 34.6735C30.6277 34.6735 34.2516 30.9971 34.2516 26.462C34.2516 26.0507 34.2215 25.6465 34.1642 25.2515Z" fill="black"/>
<mask id="mask0_149_1165" style="mask-type:luminance" maskUnits="userSpaceOnUse" x="15" y="15" width="23" height="23">
<path fill-rule="evenodd" clip-rule="evenodd" d="M26.0908 37.5359C32.1493 37.5359 37.0609 32.5529 37.0609 26.4064C37.0609 20.2597 32.1493 15.2769 26.0908 15.2769C20.0321 15.2769 15.1206 20.2597 15.1206 26.4064C15.1206 32.5529 20.0321 37.5359 26.0908 37.5359ZM34.1642 25.2515C33.1413 26.465 31.7005 27.2208 30.1041 27.2208C27.0008 27.2208 24.4852 24.3647 24.4852 20.8416C24.4852 19.9553 24.6444 19.1112 24.9321 18.3441C21.0435 18.9433 18.0637 22.3496 18.0637 26.462C18.0637 27.6619 18.3174 28.8017 18.7733 29.8291C19.2358 29.3926 19.8857 29.121 20.6056 29.121C22.0094 29.121 23.1475 30.154 23.1475 31.4284C23.1475 32.284 22.6343 33.0309 21.8722 33.4293C23.1149 34.2179 24.5838 34.6735 26.1576 34.6735C30.6277 34.6735 34.2516 30.9971 34.2516 26.462C34.2516 26.0507 34.2215 25.6465 34.1642 25.2515Z" fill="white"/>
</mask>
<g mask="url(#mask0_149_1165)">
<path d="M34.1642 25.2515L34.958 25.1325L34.7004 23.3623L33.5541 24.7222L34.1642 25.2515ZM24.9321 18.3441L25.6823 18.6338L26.1716 17.3294L24.8116 17.539L24.9321 18.3441ZM18.7733 29.8291L18.0414 30.1634L18.5007 31.1987L19.3201 30.4254L18.7733 29.8291ZM21.8722 33.4293L21.5045 32.7052L20.2504 33.361L21.4466 34.1198L21.8722 33.4293ZM36.2584 26.4064C36.2584 32.1034 31.7062 36.7217 26.0908 36.7217V38.3504C32.5928 38.3504 37.8637 33.0028 37.8637 26.4064H36.2584ZM26.0908 16.0912C31.7062 16.0912 36.2584 20.7095 36.2584 26.4064H37.8637C37.8637 19.81 32.5928 14.4625 26.0908 14.4625V16.0912ZM15.9233 26.4064C15.9233 20.7095 20.4754 16.0912 26.0908 16.0912V14.4625C19.5888 14.4625 14.3179 19.81 14.3179 26.4064H15.9233ZM26.0908 36.7217C20.4754 36.7217 15.9233 32.1034 15.9233 26.4064H14.3179C14.3179 33.0028 19.5888 38.3504 26.0908 38.3504V36.7217ZM30.1041 28.0352C31.9611 28.0352 33.6166 27.1542 34.7743 25.7808L33.5541 24.7222C32.666 25.7759 31.4399 26.4064 30.1041 26.4064V28.0352ZM23.6824 20.8417C23.6824 24.726 26.475 28.0352 30.1041 28.0352V26.4064C27.5266 26.4064 25.2878 24.0036 25.2878 20.8417H23.6824ZM24.1819 18.0544C23.8595 18.9138 23.6824 19.8561 23.6824 20.8417H25.2878C25.2878 20.0545 25.4292 19.3085 25.6823 18.6338L24.1819 18.0544ZM18.8664 26.462C18.8664 22.7582 21.5504 19.6889 25.0527 19.1492L24.8116 17.539C20.5367 18.1977 17.261 21.941 17.261 26.462H18.8664ZM19.5053 29.4949C19.0951 28.5704 18.8664 27.5444 18.8664 26.462H17.261C17.261 27.7794 17.5398 29.0329 18.0414 30.1634L19.5053 29.4949ZM20.6056 28.3067C19.6871 28.3067 18.8406 28.6534 18.2265 29.2329L19.3201 30.4254C19.631 30.1319 20.0844 29.9354 20.6056 29.9354V28.3067ZM23.9502 31.4284C23.9502 29.6215 22.3665 28.3067 20.6056 28.3067V29.9354C21.6524 29.9354 22.3448 30.6867 22.3448 31.4284H23.9502ZM22.2398 34.1533C23.2278 33.6367 23.9502 32.6334 23.9502 31.4284H22.3448C22.3448 31.9346 22.0409 32.425 21.5045 32.7052L22.2398 34.1533ZM26.1576 33.8591C24.7386 33.8591 23.4166 33.4488 22.2978 32.7388L21.4466 34.1198C22.8132 34.9867 24.4289 35.4877 26.1576 35.4877V33.8591ZM33.4487 26.462C33.4487 30.5472 30.1843 33.8591 26.1576 33.8591V35.4877C31.0709 35.4877 35.0541 31.447 35.0541 26.462H33.4487ZM33.3701 25.3705C33.4217 25.7263 33.4487 26.0907 33.4487 26.462H35.0541C35.0541 26.0108 35.0214 25.5668 34.958 25.1325L33.3701 25.3705Z" fill="black"/>
</g>
</svg>
